SplineFontDB: 3.2
FontName: ReadexPro-Medium
FullName: Readex Pro Medium
FamilyName: Readex Pro Medium
Weight: Medium
Copyright: Copyright 2019 The Readex Pro Project Authors (https://github.com/ThomasJockin/readexpro)
Version: 1.204
ItalicAngle: 0
UnderlinePosition: -125
UnderlineWidth: 50
Ascent: 800
Descent: 200
InvalidEm: 0
sfntRevision: 0x00013439
LayerCount: 2
Layer: 0 1 "Back" 1
Layer: 1 1 "Fore" 0
XUID: [1021 776 -1568457482 7364763]
StyleMap: 0x0040
FSType: 0
OS2Version: 4
OS2_WeightWidthSlopeOnly: 0
OS2_UseTypoMetrics: 1
CreationTime: 1578154464
ModificationTime: 1686627427
PfmFamily: 81
TTFWeight: 500
TTFWidth: 5
LineGap: 0
VLineGap: 0
Panose: 0 0 0 0 0 0 0 0 0 0
OS2TypoAscent: 1000
OS2TypoAOffset: 0
OS2TypoDescent: -250
OS2TypoDOffset: 0
OS2TypoLinegap: 0
OS2WinAscent: 1200
OS2WinAOffset: 0
OS2WinDescent: 555
OS2WinDOffset: 0
HheadAscent: 1000
HheadAOffset: 0
HheadDescent: -250
HheadDOffset: 0
OS2SubXSize: 650
OS2SubYSize: 600
OS2SubXOff: 0
OS2SubYOff: 75
OS2SupXSize: 650
OS2SupYSize: 600
OS2SupXOff: 0
OS2SupYOff: 350
OS2StrikeYSize: 50
OS2StrikeYPos: 315
OS2CapHeight: 700
OS2XHeight: 525
OS2Vendor: 'NONE'
OS2CodePages: 200001d3.00080000
OS2UnicodeRanges: a00020ff.c000205b.00000000.00000000
Lookup: 1 0 0 "'aalt' Access All Alternates lookup 0" { "'aalt' Access All Alternates lookup 0 subtable"  } ['aalt' ('DFLT' <'dflt' > 'arab' <'dflt' > 'latn' <'AZE ' 'CAT ' 'CRT ' 'KAZ ' 'MOL ' 'NLD ' 'ROM ' 'TAT ' 'TRK ' 'dflt' > ) ]
Lookup: 3 0 0 "'aalt' Access All Alternates lookup 1" { "'aalt' Access All Alternates lookup 1 subtable"  } ['aalt' ('DFLT' <'dflt' > 'arab' <'dflt' > 'latn' <'AZE ' 'CAT ' 'CRT ' 'KAZ ' 'MOL ' 'NLD ' 'ROM ' 'TAT ' 'TRK ' 'dflt' > ) ]

StartChar: A
Encoding: 65 65 0
Width: 699
GlyphClass: 2
Flags: W
AnchorPoint: "Anchor-6" 668 0 basechar 0
AnchorPoint: "Anchor-3" 350 0 basechar 0
AnchorPoint: "Anchor-2" 350 700 basechar 0
LayerCount: 2
Fore
SplineSet
17 0 m 1,0,-1
 290 700 l 1,1,-1
 411 700 l 1,2,-1
 682 0 l 1,3,-1
 548 0 l 1,4,-1
 397 400 l 2,5,6
 393 411 393 411 384.5 437 c 128,-1,7
 376 463 376 463 366 494 c 128,-1,8
 356 525 356 525 347.5 551 c 128,-1,9
 339 577 339 577 336 590 c 1,10,-1
 361 591 l 1,11,12
 355 571 355 571 347 545.5 c 128,-1,13
 339 520 339 520 330 493 c 128,-1,14
 321 466 321 466 312 441 c 128,-1,15
 303 416 303 416 296 396 c 2,16,-1
 146 0 l 1,17,-1
 17 0 l 1,0,-1
141 161 m 1,18,-1
 185 273 l 1,19,-1
 504 273 l 1,20,-1
 553 161 l 1,21,-1
 141 161 l 1,18,-1
EndSplineSet
Substitution2: "Single Substitution lookup 34 subtable" ordfeminine
Substitution2: "'aalt' Access All Alternates lookup 0 subtable" ordfeminine
EndChar

StartChar: B
Encoding: 66 66 1
Width: 688
GlyphClass: 2
Flags: W
AnchorPoint: "Anchor-3" 344 0 basechar 0
AnchorPoint: "Anchor-2" 344 700 basechar 0
LayerCount: 2
Fore
SplineSet
94 0 m 1,0,-1
 94 700 l 1,1,-1
 392 700 l 2,2,3
 461 700 461 700 508.5 680 c 128,-1,4
 556 660 556 660 580 620.5 c 128,-1,5
 604 581 604 581 604 525 c 0,6,7
 604 467 604 467 573.5 427 c 128,-1,8
 543 387 543 387 487 372 c 1,9,-1
 487 392 l 1,10,11
 533 382 533 382 568 356.5 c 128,-1,12
 603 331 603 331 622 293.5 c 128,-1,13
 641 256 641 256 641 208 c 0,14,15
 641 157 641 157 624.5 118 c 128,-1,16
 608 79 608 79 576.5 53 c 128,-1,17
 545 27 545 27 501.5 13.5 c 128,-1,18
 458 0 458 0 403 0 c 2,19,-1
 94 0 l 1,0,-1
220 117 m 1,20,-1
 396 117 l 2,21,22
 451 117 451 117 481.5 141.5 c 128,-1,23
 512 166 512 166 512 212 c 0,24,25
 512 240 512 240 497 260 c 128,-1,26
 482 280 482 280 455 290.5 c 128,-1,27
 428 301 428 301 391 301 c 2,28,-1
 220 301 l 1,29,-1
 220 117 l 1,20,-1
220 413 m 1,30,-1
 381 413 l 2,31,32
 409 413 409 413 431 424 c 128,-1,33
 453 435 453 435 465 454 c 128,-1,34
 477 473 477 473 477 498 c 0,35,36
 477 539 477 539 449.5 561 c 128,-1,37
 422 583 422 583 370 583 c 2,38,-1
 220 583 l 1,39,-1
 220 413 l 1,30,-1
EndSplineSet
EndChar

StartChar: C
Encoding: 67 67 2
Width: 684
GlyphClass: 2
Flags: W
AnchorPoint: "Anchor-3" 383 0 basechar 0
AnchorPoint: "Anchor-2" 397 700 basechar 0
LayerCount: 2
Fore
SplineSet
390 -10 m 0,0,1
 315 -10 315 -10 252 16 c 128,-1,2
 189 42 189 42 143 90.5 c 128,-1,3
 97 139 97 139 71.5 205.5 c 128,-1,4
 46 272 46 272 46 351 c 0,5,6
 46 427 46 427 73 492 c 128,-1,7
 100 557 100 557 148 606 c 128,-1,8
 196 655 196 655 260 682 c 128,-1,9
 324 709 324 709 398 709 c 0,10,11
 449 709 449 709 497 694 c 128,-1,12
 545 679 545 679 585.5 652.5 c 128,-1,13
 626 626 626 626 652 590 c 1,14,-1
 569 501 l 1,15,16
 530 541 530 541 487.5 562 c 128,-1,17
 445 583 445 583 398 583 c 0,18,19
 352 583 352 583 311.5 566 c 128,-1,20
 271 549 271 549 241.5 518 c 128,-1,21
 212 487 212 487 195 444.5 c 128,-1,22
 178 402 178 402 178 350 c 0,23,24
 178 297 178 297 194.5 253.5 c 128,-1,25
 211 210 211 210 241.5 179 c 128,-1,26
 272 148 272 148 314.5 132 c 128,-1,27
 357 116 357 116 409 116 c 0,28,29
 441 116 441 116 472 124.5 c 128,-1,30
 503 133 503 133 530 150 c 128,-1,31
 557 167 557 167 578 189 c 1,32,-1
 642 86 l 1,33,34
 618 59 618 59 578 37 c 128,-1,35
 538 15 538 15 489 2.5 c 128,-1,36
 440 -10 440 -10 390 -10 c 0,0,1
EndSplineSet
EndChar

StartChar: D
Encoding: 68 68 3
Width: 756
GlyphClass: 2
Flags: W
AnchorPoint: "Anchor-4" 192 350 basechar 0
AnchorPoint: "Anchor-3" 378 0 basechar 0
AnchorPoint: "Anchor-2" 378 700 basechar 0
LayerCount: 2
Fore
SplineSet
94 0 m 1,0,-1
 94 700 l 1,1,-1
 375 700 l 2,2,3
 451 700 451 700 512.5 675 c 128,-1,4
 574 650 574 650 618 603 c 128,-1,5
 662 556 662 556 686 492 c 128,-1,6
 710 428 710 428 710 350 c 256,7,8
 710 272 710 272 686 207.5 c 128,-1,9
 662 143 662 143 618.5 96.5 c 128,-1,10
 575 50 575 50 513 25 c 128,-1,11
 451 0 451 0 375 0 c 2,12,-1
 94 0 l 1,0,-1
223 101 m 1,13,-1
 214 120 l 1,14,-1
 370 120 l 2,15,16
 419 120 419 120 458 136 c 128,-1,17
 497 152 497 152 523.5 181.5 c 128,-1,18
 550 211 550 211 564.5 254 c 128,-1,19
 579 297 579 297 579 350 c 256,20,21
 579 403 579 403 564.5 445.5 c 128,-1,22
 550 488 550 488 523 518 c 128,-1,23
 496 548 496 548 457.5 564 c 128,-1,24
 419 580 419 580 370 580 c 2,25,-1
 211 580 l 1,26,-1
 223 597 l 1,27,-1
 223 101 l 1,13,-1
EndSplineSet
EndChar

StartChar: E
Encoding: 69 69 4
Width: 624
GlyphClass: 2
Flags: W
AnchorPoint: "Anchor-6" 521 0 basechar 0
AnchorPoint: "Anchor-3" 312 0 basechar 0
AnchorPoint: "Anchor-2" 332 700 basechar 0
LayerCount: 2
Fore
SplineSet
94 0 m 1,0,-1
 94 700 l 1,1,-1
 551 700 l 1,2,-1
 551 582 l 1,3,-1
 222 582 l 1,4,-1
 222 118 l 1,5,-1
 555 118 l 1,6,-1
 555 0 l 1,7,-1
 94 0 l 1,0,-1
154 300 m 1,8,-1
 154 416 l 1,9,-1
 500 416 l 1,10,-1
 500 300 l 1,11,-1
 154 300 l 1,8,-1
EndSplineSet
EndChar

StartChar: F
Encoding: 70 70 5
Width: 607
GlyphClass: 2
Flags: W
AnchorPoint: "Anchor-3" 304 0 basechar 0
AnchorPoint: "Anchor-2" 304 700 basechar 0
LayerCount: 2
Fore
SplineSet
94 0 m 1,0,-1
 94 700 l 1,1,-1
 223 700 l 1,2,-1
 223 0 l 1,3,-1
 94 0 l 1,0,-1
153 288 m 1,4,-1
 153 405 l 1,5,-1
 515 405 l 1,6,-1
 515 288 l 1,7,-1
 153 288 l 1,4,-1
153 580 m 1,8,-1
 153 700 l 1,9,-1
 558 700 l 1,10,-1
 558 580 l 1,11,-1
 153 580 l 1,8,-1
EndSplineSet
EndChar

StartChar: G
Encoding: 71 71 6
Width: 771
GlyphClass: 2
Flags: W
AnchorPoint: "Anchor-3" 386 0 basechar 0
AnchorPoint: "Anchor-2" 406 700 basechar 0
LayerCount: 2
Fore
SplineSet
411 -10 m 0,0,1
 333 -10 333 -10 266.5 17.5 c 128,-1,2
 200 45 200 45 150 94 c 128,-1,3
 100 143 100 143 73 208.5 c 128,-1,4
 46 274 46 274 46 351 c 0,5,6
 46 427 46 427 74 492 c 128,-1,7
 102 557 102 557 151.5 606 c 128,-1,8
 201 655 201 655 268.5 682 c 128,-1,9
 336 709 336 709 414 709 c 0,10,11
 468 709 468 709 519 694 c 128,-1,12
 570 679 570 679 611.5 652 c 128,-1,13
 653 625 653 625 680 591 c 1,14,-1
 598 506 l 1,15,16
 556 546 556 546 510 567 c 128,-1,17
 464 588 464 588 413 588 c 0,18,19
 363 588 363 588 320.5 570 c 128,-1,20
 278 552 278 552 245.5 520 c 128,-1,21
 213 488 213 488 195.5 445 c 128,-1,22
 178 402 178 402 178 351 c 0,23,24
 178 301 178 301 196.5 257.5 c 128,-1,25
 215 214 215 214 248.5 181 c 128,-1,26
 282 148 282 148 325.5 129.5 c 128,-1,27
 369 111 369 111 418 111 c 0,28,29
 455 111 455 111 487 121.5 c 128,-1,30
 519 132 519 132 544 151.5 c 128,-1,31
 569 171 569 171 582.5 197 c 128,-1,32
 596 223 596 223 596 252 c 2,33,-1
 596 274 l 1,34,-1
 614 254 l 1,35,-1
 407 254 l 1,36,-1
 407 370 l 1,37,-1
 724 370 l 1,38,39
 726 359 726 359 727 345.5 c 128,-1,40
 728 332 728 332 728.5 320 c 128,-1,41
 729 308 729 308 729 299 c 0,42,43
 729 230 729 230 704.5 173.5 c 128,-1,44
 680 117 680 117 637 76 c 128,-1,45
 594 35 594 35 536.5 12.5 c 128,-1,46
 479 -10 479 -10 411 -10 c 0,0,1
EndSplineSet
EndChar

StartChar: H
Encoding: 72 72 7
Width: 767
GlyphClass: 2
Flags: W
AnchorPoint: "Anchor-4" 384 350 basechar 0
AnchorPoint: "Anchor-3" 384 0 basechar 0
AnchorPoint: "Anchor-2" 384 700 basechar 0
LayerCount: 2
Fore
SplineSet
544 0 m 1,0,-1
 544 700 l 1,1,-1
 673 700 l 1,2,-1
 673 0 l 1,3,-1
 544 0 l 1,0,-1
94 0 m 1,4,-1
 94 700 l 1,5,-1
 223 700 l 1,6,-1
 223 0 l 1,7,-1
 94 0 l 1,4,-1
148 289 m 1,8,-1
 148 409 l 1,9,-1
 606 409 l 1,10,-1
 606 289 l 1,11,-1
 148 289 l 1,8,-1
EndSplineSet
EndChar

StartChar: I
Encoding: 73 73 8
Width: 504
GlyphClass: 2
Flags: W
AnchorPoint: "Anchor-6" 361 0 basechar 0
AnchorPoint: "Anchor-3" 252 0 basechar 0
AnchorPoint: "Anchor-2" 252 700 basechar 0
LayerCount: 2
Fore
SplineSet
73 0 m 1,0,-1
 73 115 l 1,1,-1
 187 115 l 1,2,-1
 187 585 l 1,3,-1
 73 585 l 1,4,-1
 73 700 l 1,5,-1
 431 700 l 1,6,-1
 431 585 l 1,7,-1
 316 585 l 1,8,-1
 316 115 l 1,9,-1
 431 115 l 1,10,-1
 431 0 l 1,11,-1
 73 0 l 1,0,-1
EndSplineSet
Substitution2: "'ss03' Style Set 3 lookup 56 subtable" I.ss03
Substitution2: "'aalt' Access All Alternates lookup 0 subtable" I.ss03
EndChar

StartChar: J
Encoding: 74 74 9
Width: 650
GlyphClass: 2
Flags: W
AnchorPoint: "Anchor-3" 325 0 basechar 0
AnchorPoint: "Anchor-2" 420 700 basechar 0
LayerCount: 2
Fore
SplineSet
258 -10 m 0,0,1
 223 -10 223 -10 191 -1 c 128,-1,2
 159 8 159 8 132 24.5 c 128,-1,3
 105 41 105 41 83.5 64.5 c 128,-1,4
 62 88 62 88 47 117 c 1,5,-1
 125 198 l 1,6,7
 151 163 151 163 171 144 c 128,-1,8
 191 125 191 125 210 118 c 128,-1,9
 229 111 229 111 252 111 c 0,10,11
 284 111 284 111 308.5 126 c 128,-1,12
 333 141 333 141 346 167 c 128,-1,13
 359 193 359 193 359 226 c 2,14,-1
 359 584 l 1,15,-1
 231 584 l 1,16,-1
 231 700 l 1,17,-1
 595 700 l 1,18,-1
 595 584 l 1,19,-1
 487 584 l 1,20,-1
 487 213 l 2,21,22
 487 164 487 164 470 123.5 c 128,-1,23
 453 83 453 83 422.5 53 c 128,-1,24
 392 23 392 23 350 6.5 c 128,-1,25
 308 -10 308 -10 258 -10 c 0,0,1
EndSplineSet
Substitution2: "'ss03' Style Set 3 lookup 56 subtable" J.ss03
Substitution2: "'aalt' Access All Alternates lookup 0 subtable" J.ss03
EndChar

StartChar: K
Encoding: 75 75 10
Width: 735
GlyphClass: 2
Flags: W
AnchorPoint: "Anchor-3" 368 0 basechar 0
AnchorPoint: "Anchor-2" 368 700 basechar 0
LayerCount: 2
Fore
SplineSet
197 210 m 1,0,-1
 178 339 l 1,1,-1
 538 700 l 1,2,-1
 700 700 l 1,3,-1
 197 210 l 1,0,-1
94 0 m 1,4,-1
 94 700 l 1,5,-1
 223 700 l 1,6,-1
 223 0 l 1,7,-1
 94 0 l 1,4,-1
554 0 m 1,8,-1
 289 353 l 1,9,-1
 380 432 l 1,10,-1
 710 0 l 1,11,-1
 554 0 l 1,8,-1
EndSplineSet
EndChar

StartChar: L
Encoding: 76 76 11
Width: 603
GlyphClass: 2
Flags: W
AnchorPoint: "Anchor-5" 307 700 basechar 0
AnchorPoint: "Anchor-4" 161 350 basechar 0
AnchorPoint: "Anchor-3" 302 0 basechar 0
AnchorPoint: "Anchor-2" 160 700 basechar 0
LayerCount: 2
Fore
SplineSet
94 0 m 1,0,-1
 94 700 l 1,1,-1
 223 700 l 1,2,-1
 223 120 l 1,3,-1
 546 120 l 1,4,-1
 546 0 l 1,5,-1
 94 0 l 1,0,-1
EndSplineSet
EndChar

StartChar: M
Encoding: 77 77 12
Width: 869
GlyphClass: 2
Flags: W
AnchorPoint: "Anchor-3" 434 0 basechar 0
AnchorPoint: "Anchor-2" 434 700 basechar 0
LayerCount: 2
Fore
SplineSet
94 0 m 1,0,-1
 94 700 l 1,1,-1
 216 700 l 1,2,-1
 471 286 l 1,3,-1
 401 287 l 1,4,-1
 658 700 l 1,5,-1
 774 700 l 1,6,-1
 774 0 l 1,7,-1
 647 0 l 1,8,-1
 647 262 l 2,9,10
 647 353 647 353 651.5 425.5 c 128,-1,11
 656 498 656 498 667 569 c 1,12,-1
 683 527 l 1,13,-1
 466 191 l 1,14,-1
 399 191 l 1,15,-1
 188 523 l 1,16,-1
 202 569 l 1,17,18
 213 502 213 502 217.5 431 c 128,-1,19
 222 360 222 360 222 262 c 2,20,-1
 222 0 l 1,21,-1
 94 0 l 1,0,-1
EndSplineSet
EndChar

StartChar: N
Encoding: 78 78 13
Width: 798
GlyphClass: 2
Flags: W
AnchorPoint: "Anchor-3" 400 0 basechar 0
AnchorPoint: "Anchor-2" 400 700 basechar 0
LayerCount: 2
Fore
SplineSet
94 0 m 1,0,-1
 94 700 l 1,1,-1
 210 700 l 1,2,-1
 618 152 l 1,3,-1
 596 147 l 1,4,5
 589 193 589 193 584.5 245 c 128,-1,6
 580 297 580 297 578 358 c 128,-1,7
 576 419 576 419 576 491 c 2,8,-1
 576 700 l 1,9,-1
 704 700 l 1,10,-1
 704 0 l 1,11,-1
 586 0 l 1,12,-1
 178 539 l 1,13,-1
 202 546 l 1,14,15
 209 475 209 475 213 429.5 c 128,-1,16
 217 384 217 384 219 355 c 128,-1,17
 221 326 221 326 221.5 307 c 128,-1,18
 222 288 222 288 222 271 c 2,19,-1
 222 0 l 1,20,-1
 94 0 l 1,0,-1
EndSplineSet
EndChar

StartChar: O
Encoding: 79 79 14
Width: 791
GlyphClass: 2
Flags: W
AnchorPoint: "Anchor-6" 599 2 basechar 0
AnchorPoint: "Anchor-5" 771 700 basechar 0
AnchorPoint: "Anchor-4" 396 350 basechar 0
AnchorPoint: "Anchor-3" 396 0 basechar 0
AnchorPoint: "Anchor-2" 396 700 basechar 0
LayerCount: 2
Fore
SplineSet
396 -10 m 0,0,1
 320 -10 320 -10 256.5 17 c 128,-1,2
 193 44 193 44 145.5 92.5 c 128,-1,3
 98 141 98 141 72 207 c 128,-1,4
 46 273 46 273 46 351 c 256,5,6
 46 429 46 429 72 495 c 128,-1,7
 98 561 98 561 145.5 609.5 c 128,-1,8
 193 658 193 658 256.5 685 c 128,-1,9
 320 712 320 712 396 712 c 0,10,11
 471 712 471 712 535 685 c 128,-1,12
 599 658 599 658 646 609 c 128,-1,13
 693 560 693 560 719 494 c 128,-1,14
 745 428 745 428 745 351 c 0,15,16
 745 273 745 273 719 207.5 c 128,-1,17
 693 142 693 142 646 93 c 128,-1,18
 599 44 599 44 535 17 c 128,-1,19
 471 -10 471 -10 396 -10 c 0,0,1
396 114 m 0,20,21
 444 114 444 114 483.5 131.5 c 128,-1,22
 523 149 523 149 552 181 c 128,-1,23
 581 213 581 213 597.5 256.5 c 128,-1,24
 614 300 614 300 614 351 c 256,25,26
 614 402 614 402 597.5 445.5 c 128,-1,27
 581 489 581 489 552 521 c 128,-1,28
 523 553 523 553 483.5 570.5 c 128,-1,29
 444 588 444 588 396 588 c 256,30,31
 348 588 348 588 308.5 570.5 c 128,-1,32
 269 553 269 553 239.5 521 c 128,-1,33
 210 489 210 489 194 446 c 128,-1,34
 178 403 178 403 178 351 c 0,35,36
 178 282 178 282 206 228.5 c 128,-1,37
 234 175 234 175 283 144.5 c 128,-1,38
 332 114 332 114 396 114 c 0,20,21
EndSplineSet
Substitution2: "Single Substitution lookup 34 subtable" ordmasculine
Substitution2: "'aalt' Access All Alternates lookup 0 subtable" ordmasculine
EndChar

StartChar: P
Encoding: 80 80 15
Width: 643
GlyphClass: 2
Flags: W
AnchorPoint: "Anchor-3" 322 0 basechar 0
AnchorPoint: "Anchor-2" 322 700 basechar 0
LayerCount: 2
Fore
SplineSet
94 0 m 1,0,-1
 94 700 l 1,1,-1
 385 700 l 2,2,3
 445 700 445 700 493.5 671 c 128,-1,4
 542 642 542 642 570.5 592 c 128,-1,5
 599 542 599 542 599 480 c 256,6,7
 599 418 599 418 570.5 367.5 c 128,-1,8
 542 317 542 317 493.5 287 c 128,-1,9
 445 257 445 257 385 257 c 2,10,-1
 223 257 l 1,11,-1
 223 0 l 1,12,-1
 94 0 l 1,0,-1
223 376 m 1,13,-1
 376 376 l 2,14,15
 402 376 402 376 422.5 390 c 128,-1,16
 443 404 443 404 455.5 427.5 c 128,-1,17
 468 451 468 451 468 479 c 0,18,19
 468 508 468 508 455.5 531 c 128,-1,20
 443 554 443 554 422.5 567 c 128,-1,21
 402 580 402 580 376 580 c 2,22,-1
 223 580 l 1,23,-1
 223 376 l 1,13,-1
EndSplineSet
EndChar

StartChar: Q
Encoding: 81 81 16
Width: 791
GlyphClass: 2
Flags: W
AnchorPoint: "Anchor-6" 599 2 basechar 0
AnchorPoint: "Anchor-5" 771 700 basechar 0
AnchorPoint: "Anchor-4" 396 350 basechar 0
AnchorPoint: "Anchor-3" 396 0 basechar 0
AnchorPoint: "Anchor-2" 396 700 basechar 0
LayerCount: 2
Fore
SplineSet
613 -110 m 1,0,-1
 347 242 l 1,1,-1
 449 310 l 1,2,-1
 711 -39 l 1,3,-1
 613 -110 l 1,0,-1
396 -10 m 0,4,5
 320 -10 320 -10 256.5 17 c 128,-1,6
 193 44 193 44 145.5 92.5 c 128,-1,7
 98 141 98 141 72 207 c 128,-1,8
 46 273 46 273 46 351 c 256,9,10
 46 429 46 429 72 495 c 128,-1,11
 98 561 98 561 145.5 609.5 c 128,-1,12
 193 658 193 658 256.5 685 c 128,-1,13
 320 712 320 712 396 712 c 0,14,15
 471 712 471 712 535 685 c 128,-1,16
 599 658 599 658 646 609 c 128,-1,17
 693 560 693 560 719 494 c 128,-1,18
 745 428 745 428 745 351 c 0,19,20
 745 273 745 273 719 207.5 c 128,-1,21
 693 142 693 142 646 93 c 128,-1,22
 599 44 599 44 535 17 c 128,-1,23
 471 -10 471 -10 396 -10 c 0,4,5
396 114 m 0,24,25
 444 114 444 114 483.5 131.5 c 128,-1,26
 523 149 523 149 552 181 c 128,-1,27
 581 213 581 213 597.5 256.5 c 128,-1,28
 614 300 614 300 614 351 c 256,29,30
 614 402 614 402 597.5 445.5 c 128,-1,31
 581 489 581 489 552 521 c 128,-1,32
 523 553 523 553 483.5 570.5 c 128,-1,33
 444 588 444 588 396 588 c 256,34,35
 348 588 348 588 308.5 570.5 c 128,-1,36
 269 553 269 553 239.5 521 c 128,-1,37
 210 489 210 489 194 446 c 128,-1,38
 178 403 178 403 178 351 c 0,39,40
 178 282 178 282 206 228.5 c 128,-1,41
 234 175 234 175 283 144.5 c 128,-1,42
 332 114 332 114 396 114 c 0,24,25
EndSplineSet
EndChar

StartChar: R
Encoding: 82 82 17
Width: 698
GlyphClass: 2
Flags: W
AnchorPoint: "Anchor-3" 350 0 basechar 0
AnchorPoint: "Anchor-2" 323 700 basechar 0
LayerCount: 2
Fore
SplineSet
94 0 m 1,0,-1
 94 700 l 1,1,-1
 399 700 l 2,2,3
 461 700 461 700 513 670.5 c 128,-1,4
 565 641 565 641 595.5 590.5 c 128,-1,5
 626 540 626 540 626 477 c 0,6,7
 626 417 626 417 595.5 367 c 128,-1,8
 565 317 565 317 513.5 287 c 128,-1,9
 462 257 462 257 399 257 c 2,10,-1
 221 257 l 1,11,-1
 221 0 l 1,12,-1
 94 0 l 1,0,-1
501 0 m 1,13,-1
 323 316 l 1,14,-1
 456 341 l 1,15,-1
 654 -1 l 1,16,-1
 501 0 l 1,13,-1
221 371 m 1,17,-1
 400 371 l 2,18,19
 428 371 428 371 450 384.5 c 128,-1,20
 472 398 472 398 484 421.5 c 128,-1,21
 496 445 496 445 496 474 c 0,22,23
 496 507 496 507 481 531 c 128,-1,24
 466 555 466 555 439 569 c 128,-1,25
 412 583 412 583 377 583 c 2,26,-1
 221 583 l 1,27,-1
 221 371 l 1,17,-1
EndSplineSet
EndChar

StartChar: S
Encoding: 83 83 18
Width: 628
GlyphClass: 2
Flags: W
AnchorPoint: "Anchor-3" 334 0 basechar 0
AnchorPoint: "Anchor-2" 332 700 basechar 0
LayerCount: 2
Fore
SplineSet
316 -10 m 0,0,1
 224 -10 224 -10 156.5 25 c 128,-1,2
 89 60 89 60 41 127 c 1,3,-1
 125 223 l 1,4,5
 174 154 174 154 220.5 128.5 c 128,-1,6
 267 103 267 103 326 103 c 0,7,8
 360 103 360 103 388 113 c 128,-1,9
 416 123 416 123 432 141.5 c 128,-1,10
 448 160 448 160 448 185 c 0,11,12
 448 202 448 202 441.5 216.5 c 128,-1,13
 435 231 435 231 422.5 242.5 c 128,-1,14
 410 254 410 254 391.5 264 c 128,-1,15
 373 274 373 274 348.5 281.5 c 128,-1,16
 324 289 324 289 295 294 c 0,17,18
 239 305 239 305 198.5 323.5 c 128,-1,19
 158 342 158 342 130.5 369.5 c 128,-1,20
 103 397 103 397 89.5 431.5 c 128,-1,21
 76 466 76 466 76 510 c 0,22,23
 76 569 76 569 109.5 614.5 c 128,-1,24
 143 660 143 660 199.5 686 c 128,-1,25
 256 712 256 712 324 712 c 0,26,27
 412 712 412 712 473.5 680 c 128,-1,28
 535 648 535 648 570 589 c 1,29,-1
 484 505 l 1,30,31
 454 551 454 551 413 575 c 128,-1,32
 372 599 372 599 324 599 c 0,33,34
 288 599 288 599 261.5 588.5 c 128,-1,35
 235 578 235 578 220 559.5 c 128,-1,36
 205 541 205 541 205 515 c 0,37,38
 205 496 205 496 213.5 480 c 128,-1,39
 222 464 222 464 239 452 c 128,-1,40
 256 440 256 440 282 431 c 128,-1,41
 308 422 308 422 342 415 c 0,42,43
 397 403 397 403 440.5 385 c 128,-1,44
 484 367 484 367 514.5 341.5 c 128,-1,45
 545 316 545 316 561 283.5 c 128,-1,46
 577 251 577 251 577 211 c 0,47,48
 577 143 577 143 545 93 c 128,-1,49
 513 43 513 43 454 16.5 c 128,-1,50
 395 -10 395 -10 316 -10 c 0,0,1
EndSplineSet
EndChar

StartChar: T
Encoding: 84 84 19
Width: 602
GlyphClass: 2
Flags: W
AnchorPoint: "Anchor-4" 301 350 basechar 0
AnchorPoint: "Anchor-3" 301 0 basechar 0
AnchorPoint: "Anchor-2" 301 700 basechar 0
LayerCount: 2
Fore
SplineSet
234 0 m 1,0,-1
 234 580 l 1,1,-1
 34 580 l 1,2,-1
 34 700 l 1,3,-1
 568 700 l 1,4,-1
 568 580 l 1,5,-1
 363 580 l 1,6,-1
 363 0 l 1,7,-1
 234 0 l 1,0,-1
EndSplineSet
EndChar

StartChar: U
Encoding: 85 85 20
Width: 748
GlyphClass: 2
Flags: W
AnchorPoint: "Anchor-6" 548 0 basechar 0
AnchorPoint: "Anchor-5" 728 700 basechar 0
AnchorPoint: "Anchor-3" 374 0 basechar 0
AnchorPoint: "Anchor-2" 374 700 basechar 0
LayerCount: 2
Fore
SplineSet
374 -6 m 256,0,1
 291 -6 291 -6 226 29.5 c 128,-1,2
 161 65 161 65 123.5 127.5 c 128,-1,3
 86 190 86 190 86 269 c 2,4,-1
 86 701 l 1,5,-1
 216 701 l 1,6,-1
 216 278 l 2,7,8
 216 231 216 231 237.5 194 c 128,-1,9
 259 157 259 157 295 135.5 c 128,-1,10
 331 114 331 114 374 114 c 0,11,12
 420 114 420 114 457 135.5 c 128,-1,13
 494 157 494 157 516 194 c 128,-1,14
 538 231 538 231 538 278 c 2,15,-1
 538 701 l 1,16,-1
 662 701 l 1,17,-1
 662 269 l 2,18,19
 662 190 662 190 624.5 127.5 c 128,-1,20
 587 65 587 65 522 29.5 c 128,-1,21
 457 -6 457 -6 374 -6 c 256,0,1
EndSplineSet
EndChar

StartChar: V
Encoding: 86 86 21
Width: 715
GlyphClass: 2
Flags: W
AnchorPoint: "Anchor-3" 358 0 basechar 0
AnchorPoint: "Anchor-2" 358 700 basechar 0
LayerCount: 2
Fore
SplineSet
298 0 m 1,0,-1
 18 700 l 1,1,-1
 159 700 l 1,2,-1
 315 299 l 2,3,4
 327 268 327 268 336 243.5 c 128,-1,5
 345 219 345 219 352 198.5 c 128,-1,6
 359 178 359 178 365 159 c 128,-1,7
 371 140 371 140 377 119 c 1,8,-1
 350 119 l 1,9,10
 357 146 357 146 365 172.5 c 128,-1,11
 373 199 373 199 383.5 229.5 c 128,-1,12
 394 260 394 260 409 299 c 2,13,-1
 555 700 l 1,14,-1
 697 700 l 1,15,-1
 416 0 l 1,16,-1
 298 0 l 1,0,-1
EndSplineSet
EndChar

StartChar: W
Encoding: 87 87 22
Width: 997
GlyphClass: 2
Flags: W
AnchorPoint: "Anchor-3" 498 0 basechar 0
AnchorPoint: "Anchor-2" 498 700 basechar 0
LayerCount: 2
Fore
SplineSet
237 0 m 1,0,-1
 18 700 l 1,1,-1
 152 700 l 1,2,-1
 278 285 l 2,3,4
 286 260 286 260 292 229 c 128,-1,5
 298 198 298 198 303 170 c 128,-1,6
 308 142 308 142 310 126 c 1,7,-1
 283 126 l 1,8,9
 296 174 296 174 303 203 c 128,-1,10
 310 232 310 232 315 251 c 128,-1,11
 320 270 320 270 326 286 c 2,12,-1
 445 589 l 1,13,-1
 555 589 l 1,14,-1
 671 286 l 2,15,16
 682 259 682 259 689.5 233.5 c 128,-1,17
 697 208 697 208 702.5 184 c 128,-1,18
 708 160 708 160 713 134 c 1,19,-1
 689 128 l 1,20,21
 693 152 693 152 695 167.5 c 128,-1,22
 697 183 697 183 699 194.5 c 128,-1,23
 701 206 701 206 703 217.5 c 128,-1,24
 705 229 705 229 709 245.5 c 128,-1,25
 713 262 713 262 721 288 c 2,26,-1
 844 700 l 1,27,-1
 979 700 l 1,28,-1
 760 0 l 1,29,-1
 666 0 l 1,30,-1
 487 426 l 1,31,-1
 500 423 l 1,32,-1
 330 0 l 1,33,-1
 237 0 l 1,0,-1
EndSplineSet
EndChar

StartChar: X
Encoding: 88 88 23
Width: 692
GlyphClass: 2
Flags: W
AnchorPoint: "Anchor-3" 347 0 basechar 0
AnchorPoint: "Anchor-2" 347 700 basechar 0
LayerCount: 2
Fore
SplineSet
516 0 m 1,0,-1
 299 314 l 1,1,-1
 21 700 l 1,2,-1
 181 700 l 1,3,-1
 393 390 l 1,4,-1
 676 0 l 1,5,-1
 516 0 l 1,0,-1
16 0 m 1,6,-1
 283 381 l 1,7,-1
 373 302 l 1,8,-1
 166 0 l 1,9,-1
 16 0 l 1,6,-1
409 325 m 1,10,-1
 320 401 l 1,11,-1
 516 700 l 1,12,-1
 666 700 l 1,13,-1
 409 325 l 1,10,-1
EndSplineSet
EndChar

StartChar: Y
Encoding: 89 89 24
Width: 670
GlyphClass: 2
Flags: W
AnchorPoint: "Anchor-3" 335 0 basechar 0
AnchorPoint: "Anchor-2" 335 700 basechar 0
LayerCount: 2
Fore
SplineSet
280 0 m 1,0,-1
 280 349 l 1,1,-1
 287 300 l 1,2,-1
 4 700 l 1,3,-1
 156 700 l 1,4,-1
 371 391 l 1,5,-1
 326 394 l 1,6,-1
 520 700 l 1,7,-1
 666 700 l 1,8,-1
 395 289 l 1,9,-1
 410 357 l 1,10,-1
 410 0 l 1,11,-1
 280 0 l 1,0,-1
EndSplineSet
EndChar

StartChar: Z
Encoding: 90 90 25
Width: 667
GlyphClass: 2
Flags: W
AnchorPoint: "Anchor-4" 334 350 basechar 0
AnchorPoint: "Anchor-3" 334 0 basechar 0
AnchorPoint: "Anchor-2" 334 700 basechar 0
LayerCount: 2
Fore
SplineSet
60 0 m 1,0,-1
 60 91 l 1,1,-1
 451 612 l 1,2,-1
 480 579 l 1,3,-1
 86 579 l 1,4,-1
 86 700 l 1,5,-1
 600 700 l 1,6,-1
 600 610 l 1,7,-1
 212 88 l 1,8,-1
 181 119 l 1,9,-1
 611 119 l 1,10,-1
 611 0 l 1,11,-1
 60 0 l 1,0,-1
EndSplineSet
EndChar

StartChar: a
Encoding: 97 97 26
Width: 545
GlyphClass: 2
Flags: W
AnchorPoint: "Anchor-6" 480 0 basechar 0
AnchorPoint: "Anchor-3" 272 0 basechar 0
AnchorPoint: "Anchor-2" 272 527 basechar 0
LayerCount: 2
Fore
SplineSet
373 0 m 1,0,-1
 373 337 l 2,1,2
 373 380 373 380 344.5 404.5 c 128,-1,3
 316 429 316 429 271 429 c 0,4,5
 229 429 229 429 195 412.5 c 128,-1,6
 161 396 161 396 132 360 c 1,7,-1
 56 436 l 1,8,9
 103 486 103 486 160 512 c 128,-1,10
 217 538 217 538 283 538 c 0,11,12
 346 538 346 538 391.5 518 c 128,-1,13
 437 498 437 498 462 458.5 c 128,-1,14
 487 419 487 419 487 362 c 2,15,-1
 487 0 l 1,16,-1
 373 0 l 1,0,-1
223 -10 m 0,17,18
 172 -10 172 -10 132 10 c 128,-1,19
 92 30 92 30 68.5 65.5 c 128,-1,20
 45 101 45 101 45 149 c 0,21,22
 45 191 45 191 60 222.5 c 128,-1,23
 75 254 75 254 104.5 275 c 128,-1,24
 134 296 134 296 178.5 306.5 c 128,-1,25
 223 317 223 317 281 317 c 2,26,-1
 432 317 l 1,27,-1
 423 229 l 1,28,-1
 274 229 l 2,29,30
 247 229 247 229 226 224 c 128,-1,31
 205 219 205 219 190 209 c 128,-1,32
 175 199 175 199 168 185.5 c 128,-1,33
 161 172 161 172 161 153 c 0,34,35
 161 133 161 133 171 118.5 c 128,-1,36
 181 104 181 104 198 96 c 128,-1,37
 215 88 215 88 238 88 c 0,38,39
 271 88 271 88 300.5 99 c 128,-1,40
 330 110 330 110 353 130 c 128,-1,41
 376 150 376 150 389 175 c 1,42,-1
 414 107 l 1,43,44
 393 72 393 72 362.5 46 c 128,-1,45
 332 20 332 20 296.5 5 c 128,-1,46
 261 -10 261 -10 223 -10 c 0,17,18
EndSplineSet
Substitution2: "'ss01' Style Set 1 lookup 54 subtable" a.ss01
Substitution2: "Single Substitution lookup 34 subtable" ordfeminine
AlternateSubs2: "'aalt' Access All Alternates lookup 1 subtable" a.ss01 ordfeminine
EndChar

StartChar: b
Encoding: 98 98 27
Width: 639
GlyphClass: 2
Flags: W
AnchorPoint: "Anchor-3" 320 0 basechar 0
AnchorPoint: "Anchor-2" 320 740 basechar 0
LayerCount: 2
Fore
SplineSet
362 -10 m 0,0,1
 327 -10 327 -10 294 0.5 c 128,-1,2
 261 11 261 11 233.5 29 c 128,-1,3
 206 47 206 47 188 69.5 c 128,-1,4
 170 92 170 92 164 115 c 1,5,-1
 193 128 l 1,6,-1
 190 3 l 1,7,-1
 72 3 l 1,8,-1
 72 740 l 1,9,-1
 194 740 l 1,10,-1
 194 406 l 1,11,-1
 173 415 l 1,12,13
 178 439 178 439 195 460.5 c 128,-1,14
 212 482 212 482 238 499.5 c 128,-1,15
 264 517 264 517 295 527.5 c 128,-1,16
 326 538 326 538 359 538 c 0,17,18
 429 538 429 538 483.5 502.5 c 128,-1,19
 538 467 538 467 569.5 405.5 c 128,-1,20
 601 344 601 344 601 264 c 0,21,22
 601 185 601 185 570 123 c 128,-1,23
 539 61 539 61 484.5 25.5 c 128,-1,24
 430 -10 430 -10 362 -10 c 0,0,1
337 98 m 0,25,26
 379 98 379 98 412 119.5 c 128,-1,27
 445 141 445 141 464 178.5 c 128,-1,28
 483 216 483 216 483 264 c 0,29,30
 483 313 483 313 464.5 350.5 c 128,-1,31
 446 388 446 388 413 409 c 128,-1,32
 380 430 380 430 337 430 c 0,33,34
 293 430 293 430 260 409 c 128,-1,35
 227 388 227 388 208 350.5 c 128,-1,36
 189 313 189 313 189 264 c 0,37,38
 189 216 189 216 208 178.5 c 128,-1,39
 227 141 227 141 260 119.5 c 128,-1,40
 293 98 293 98 337 98 c 0,25,26
EndSplineSet
EndChar

StartChar: c
Encoding: 99 99 28
Width: 538
GlyphClass: 2
Flags: W
AnchorPoint: "Anchor-3" 299 0 basechar 0
AnchorPoint: "Anchor-2" 298 527 basechar 0
LayerCount: 2
Fore
SplineSet
298 -10 m 0,0,1
 224 -10 224 -10 165 26 c 128,-1,2
 106 62 106 62 72 124 c 128,-1,3
 38 186 38 186 38 264 c 256,4,5
 38 342 38 342 72 404 c 128,-1,6
 106 466 106 466 165 502 c 128,-1,7
 224 538 224 538 298 538 c 0,8,9
 368 538 368 538 426.5 510.5 c 128,-1,10
 485 483 485 483 516 436 c 1,11,-1
 449 354 l 1,12,13
 434 375 434 375 411 392 c 128,-1,14
 388 409 388 409 361.5 419 c 128,-1,15
 335 429 335 429 310 429 c 0,16,17
 265 429 265 429 230.5 407.5 c 128,-1,18
 196 386 196 386 176 348.5 c 128,-1,19
 156 311 156 311 156 264 c 256,20,21
 156 217 156 217 176.5 180 c 128,-1,22
 197 143 197 143 232 121 c 128,-1,23
 267 99 267 99 310 99 c 0,24,25
 337 99 337 99 361 107.5 c 128,-1,26
 385 116 385 116 407.5 132 c 128,-1,27
 430 148 430 148 449 172 c 1,28,-1
 516 90 l 1,29,30
 483 46 483 46 423 18 c 128,-1,31
 363 -10 363 -10 298 -10 c 0,0,1
EndSplineSet
EndChar

StartChar: d
Encoding: 100 100 29
Width: 641
GlyphClass: 2
Flags: W
AnchorPoint: "Anchor-5" 605 740 basechar 0
AnchorPoint: "Anchor-4" 494 634 basechar 0
AnchorPoint: "Anchor-3" 321 0 basechar 0
AnchorPoint: "Anchor-2" 321 740 basechar 0
LayerCount: 2
Fore
SplineSet
285 -10 m 0,0,1
 214 -10 214 -10 158.5 25.5 c 128,-1,2
 103 61 103 61 70.5 122.5 c 128,-1,3
 38 184 38 184 38 264 c 0,4,5
 38 343 38 343 70 405 c 128,-1,6
 102 467 102 467 157.5 502.5 c 128,-1,7
 213 538 213 538 283 538 c 0,8,9
 321 538 321 538 356.5 526 c 128,-1,10
 392 514 392 514 420.5 493.5 c 128,-1,11
 449 473 449 473 465.5 448 c 128,-1,12
 482 423 482 423 483 396 c 1,13,-1
 450 392 l 1,14,-1
 450 740 l 1,15,-1
 573 740 l 1,16,-1
 573 0 l 1,17,-1
 454 0 l 1,18,-1
 451 123 l 1,19,-1
 475 121 l 1,20,21
 474 97 474 97 458 74 c 128,-1,22
 442 51 442 51 415.5 32 c 128,-1,23
 389 13 389 13 355 1.5 c 128,-1,24
 321 -10 321 -10 285 -10 c 0,0,1
308 94 m 0,25,26
 351 94 351 94 384 115.5 c 128,-1,27
 417 137 417 137 435.5 175.5 c 128,-1,28
 454 214 454 214 454 264 c 256,29,30
 454 314 454 314 435.5 352 c 128,-1,31
 417 390 417 390 384 412 c 128,-1,32
 351 434 351 434 308 434 c 0,33,34
 264 434 264 434 231.5 412 c 128,-1,35
 199 390 199 390 180 352 c 128,-1,36
 161 314 161 314 161 264 c 256,37,38
 161 214 161 214 180 175.5 c 128,-1,39
 199 137 199 137 231.5 115.5 c 128,-1,40
 264 94 264 94 308 94 c 0,25,26
EndSplineSet
EndChar

StartChar: e
Encoding: 101 101 30
Width: 586
GlyphClass: 2
Flags: W
AnchorPoint: "Anchor-6" 505 2 basechar 0
AnchorPoint: "Anchor-3" 319 0 basechar 0
AnchorPoint: "Anchor-2" 307 527 basechar 0
LayerCount: 2
Fore
SplineSet
319 -10 m 0,0,1
 236 -10 236 -10 172.5 24.5 c 128,-1,2
 109 59 109 59 73.5 119.5 c 128,-1,3
 38 180 38 180 38 259 c 0,4,5
 38 321 38 321 58 372 c 128,-1,6
 78 423 78 423 114 460.5 c 128,-1,7
 150 498 150 498 199.5 518.5 c 128,-1,8
 249 539 249 539 307 539 c 0,9,10
 360 539 360 539 404.5 519 c 128,-1,11
 449 499 449 499 482 464.5 c 128,-1,12
 515 430 515 430 532.5 382.5 c 128,-1,13
 550 335 550 335 549 279 c 2,14,-1
 548 235 l 1,15,-1
 122 235 l 1,16,-1
 98 320 l 1,17,-1
 445 320 l 1,18,-1
 430 303 l 1,19,-1
 430 326 l 2,20,21
 427 356 427 356 410 379.5 c 128,-1,22
 393 403 393 403 366.5 416.5 c 128,-1,23
 340 430 340 430 308 430 c 0,24,25
 259 430 259 430 225 411.5 c 128,-1,26
 191 393 191 393 173.5 357 c 128,-1,27
 156 321 156 321 156 268 c 0,28,29
 156 217 156 217 177.5 179 c 128,-1,30
 199 141 199 141 239 120 c 128,-1,31
 279 99 279 99 332 99 c 0,32,33
 369 99 369 99 400.5 111 c 128,-1,34
 432 123 432 123 468 154 c 1,35,-1
 528 70 l 1,36,37
 501 45 501 45 466.5 27.5 c 128,-1,38
 432 10 432 10 394 0 c 128,-1,39
 356 -10 356 -10 319 -10 c 0,0,1
EndSplineSet
EndChar

StartChar: f
Encoding: 102 102 32
Width: 394
GlyphClass: 2
Flags: W
AnchorPoint: "Anchor-3" 197 0 basechar 0
AnchorPoint: "Anchor-2" 197 740 basechar 0
LayerCount: 2
Fore
SplineSet
121 0 m 1,0,-1
 121 575 l 2,1,2
 121 622 121 622 142 659.5 c 128,-1,3
 163 697 163 697 200 718.5 c 128,-1,4
 237 740 237 740 285 740 c 0,5,6
 319 740 319 740 348.5 728 c 128,-1,7
 378 716 378 716 397 696 c 1,8,-1
 359 605 l 1,9,10
 346 615 346 615 331.5 621.5 c 128,-1,11
 317 628 317 628 304 628 c 0,12,13
 284 628 284 628 270.5 621.5 c 128,-1,14
 257 615 257 615 250.5 602 c 128,-1,15
 244 589 244 589 244 570 c 2,16,-1
 244 0 l 1,17,-1
 182 0 l 2,18,19
 165 0 165 0 149.5 0 c 128,-1,20
 134 0 134 0 121 0 c 1,0,-1
39 408 m 1,21,-1
 39 516 l 1,22,-1
 363 516 l 1,23,-1
 363 408 l 1,24,-1
 39 408 l 1,21,-1
EndSplineSet
EndChar

StartChar: g
Encoding: 103 103 33
Width: 656
GlyphClass: 2
Flags: W
AnchorPoint: "Anchor-3" 328 -230 basechar 0
AnchorPoint: "Anchor-2" 328 527 basechar 0
LayerCount: 2
Fore
SplineSet
309 -230 m 0,0,1
 251 -230 251 -230 192.5 -212 c 128,-1,2
 134 -194 134 -194 98 -166 c 1,3,-1
 142 -74 l 1,4,5
 172 -97 172 -97 215.5 -110.5 c 128,-1,6
 259 -124 259 -124 303 -124 c 0,7,8
 356 -124 356 -124 391.5 -107 c 128,-1,9
 427 -90 427 -90 445 -56.5 c 128,-1,10
 463 -23 463 -23 463 26 c 2,11,-1
 463 123 l 1,12,-1
 480 116 l 1,13,14
 475 85 475 85 447.5 57 c 128,-1,15
 420 29 420 29 379 12 c 128,-1,16
 338 -5 338 -5 295 -5 c 0,17,18
 221 -5 221 -5 163 29.5 c 128,-1,19
 105 64 105 64 71.5 125 c 128,-1,20
 38 186 38 186 38 265 c 256,21,22
 38 344 38 344 71 405.5 c 128,-1,23
 104 467 104 467 162 502.5 c 128,-1,24
 220 538 220 538 292 538 c 0,25,26
 321 538 321 538 349 531 c 128,-1,27
 377 524 377 524 401 511 c 128,-1,28
 425 498 425 498 443.5 482 c 128,-1,29
 462 466 462 466 474 448 c 128,-1,30
 486 430 486 430 489 414 c 1,31,-1
 464 405 l 1,32,-1
 466 527 l 1,33,-1
 585 527 l 1,34,-1
 585 36 l 2,35,36
 585 -28 585 -28 566.5 -77 c 128,-1,37
 548 -126 548 -126 512 -160 c 128,-1,38
 476 -194 476 -194 425 -212 c 128,-1,39
 374 -230 374 -230 309 -230 c 0,0,1
313 100 m 0,40,41
 359 100 359 100 394 121 c 128,-1,42
 429 142 429 142 448 179 c 128,-1,43
 467 216 467 216 467 264 c 0,44,45
 467 313 467 313 447.5 350.5 c 128,-1,46
 428 388 428 388 393.5 409 c 128,-1,47
 359 430 359 430 313 430 c 0,48,49
 269 430 269 430 234.5 408.5 c 128,-1,50
 200 387 200 387 180.5 349.5 c 128,-1,51
 161 312 161 312 161 264 c 256,52,53
 161 216 161 216 180.5 179 c 128,-1,54
 200 142 200 142 234.5 121 c 128,-1,55
 269 100 269 100 313 100 c 0,40,41
EndSplineSet
Substitution2: "'ss02' Style Set 2 lookup 55 subtable" g.ss02
Substitution2: "'aalt' Access All Alternates lookup 0 subtable" g.ss02
EndChar

StartChar: h
Encoding: 104 104 34
Width: 609
GlyphClass: 2
Flags: W
AnchorPoint: "Anchor-4" 156 638 basechar 0
AnchorPoint: "Anchor-3" 305 0 basechar 0
AnchorPoint: "Anchor-2" 305 740 basechar 0
LayerCount: 2
Fore
SplineSet
72 0 m 1,0,-1
 72 740 l 1,1,-1
 193 740 l 1,2,-1
 193 419 l 1,3,-1
 170 407 l 1,4,5
 181 442 181 442 209.5 471.5 c 128,-1,6
 238 501 238 501 278 519.5 c 128,-1,7
 318 538 318 538 361 538 c 0,8,9
 421 538 421 538 461.5 514 c 128,-1,10
 502 490 502 490 522 442 c 128,-1,11
 542 394 542 394 542 322 c 2,12,-1
 542 0 l 1,13,-1
 420 0 l 1,14,-1
 420 313 l 2,15,16
 420 354 420 354 409 380.5 c 128,-1,17
 398 407 398 407 375 419.5 c 128,-1,18
 352 432 352 432 319 430 c 0,19,20
 292 430 292 430 269 421.5 c 128,-1,21
 246 413 246 413 229.5 397.5 c 128,-1,22
 213 382 213 382 203.5 361.5 c 128,-1,23
 194 341 194 341 194 317 c 2,24,-1
 194 0 l 1,25,-1
 133 0 l 2,26,27
 116 0 116 0 100.5 0 c 128,-1,28
 85 0 85 0 72 0 c 1,0,-1
EndSplineSet
EndChar

StartChar: i
Encoding: 105 105 35
Width: 292
GlyphClass: 2
Flags: W
AnchorPoint: "Anchor-6" 205 0 basechar 0
AnchorPoint: "Anchor-3" 146 0 basechar 0
AnchorPoint: "Anchor-2" 146 720 basechar 0
LayerCount: 2
Fore
SplineSet
86 0 m 1,0,-1
 86 527 l 1,1,-1
 208 527 l 1,2,-1
 208 0 l 1,3,-1
 86 0 l 1,0,-1
146 639 m 0,4,5
 109 639 109 639 88.5 657.5 c 128,-1,6
 68 676 68 676 68 710 c 0,7,8
 68 742 68 742 89 761.5 c 128,-1,9
 110 781 110 781 146 781 c 0,10,11
 183 781 183 781 203.5 762.5 c 128,-1,12
 224 744 224 744 224 710 c 0,13,14
 224 679 224 679 203 659 c 128,-1,15
 182 639 182 639 146 639 c 0,4,5
EndSplineSet
Substitution2: "'locl' Localized Forms in Latin lookup 16 subtable" i.loclTRK
Substitution2: "'locl' Localized Forms in Latin lookup 15 subtable" i.loclTRK
Substitution2: "'locl' Localized Forms in Latin lookup 14 subtable" i.loclTRK
Substitution2: "'locl' Localized Forms in Latin lookup 13 subtable" i.loclTRK
Substitution2: "'locl' Localized Forms in Latin lookup 12 subtable" i.loclTRK
Substitution2: "Single Substitution lookup 4 subtable" dotlessi
Substitution2: "Single Substitution lookup 3 subtable" dotlessi
Substitution2: "'aalt' Access All Alternates lookup 0 subtable" i.loclTRK
EndChar

StartChar: j
Encoding: 106 106 36
Width: 282
GlyphClass: 1
Flags: W
LayerCount: 2
Fore
SplineSet
14 -201 m 1,0,-1
 -33 -107 l 1,1,2
 29 -107 29 -107 57 -78 c 128,-1,3
 85 -49 85 -49 85 14 c 2,4,-1
 85 527 l 1,5,-1
 207 527 l 1,6,-1
 207 -15 l 2,7,8
 207 -73 207 -73 183.5 -115 c 128,-1,9
 160 -157 160 -157 117 -179 c 128,-1,10
 74 -201 74 -201 14 -201 c 1,0,-1
149 639 m 0,11,12
 111 639 111 639 91 657.5 c 128,-1,13
 71 676 71 676 71 710 c 0,14,15
 71 742 71 742 91.5 761.5 c 128,-1,16
 112 781 112 781 149 781 c 256,17,18
 186 781 186 781 206.5 762.5 c 128,-1,19
 227 744 227 744 227 710 c 0,20,21
 227 679 227 679 206 659 c 128,-1,22
 185 639 185 639 149 639 c 0,11,12
EndSplineSet
Substitution2: "Single Substitution lookup 4 subtable" uni0237
Substitution2: "Single Substitution lookup 3 subtable" uni0237
EndChar

StartChar: k
Encoding: 107 107 37
Width: 588
GlyphClass: 2
Flags: W
AnchorPoint: "Anchor-3" 293 0 basechar 0
AnchorPoint: "Anchor-2" 293 740 basechar 0
LayerCount: 2
Fore
SplineSet
186 161 m 1,0,-1
 163 277 l 1,1,-1
 413 527 l 1,2,-1
 576 527 l 1,3,-1
 186 161 l 1,0,-1
72 0 m 1,4,-1
 72 740 l 1,5,-1
 194 740 l 1,6,-1
 194 0 l 1,7,-1
 72 0 l 1,4,-1
427 0 m 1,8,-1
 234 234 l 1,9,-1
 320 308 l 1,10,-1
 579 0 l 1,11,-1
 427 0 l 1,8,-1
EndSplineSet
EndChar

StartChar: l
Encoding: 108 108 38
Width: 269
GlyphClass: 2
Flags: W
AnchorPoint: "Anchor-5" 233 740 basechar 0
AnchorPoint: "Anchor-4" 135 370 basechar 0
AnchorPoint: "Anchor-3" 135 0 basechar 0
AnchorPoint: "Anchor-2" 135 740 basechar 0
LayerCount: 2
Fore
SplineSet
73 0 m 1,0,-1
 73 740 l 1,1,-1
 195 740 l 1,2,-1
 195 0 l 1,3,-1
 73 0 l 1,0,-1
EndSplineSet
EndChar

StartChar: m
Encoding: 109 109 39
Width: 935
GlyphClass: 2
Flags: W
AnchorPoint: "Anchor-3" 468 0 basechar 0
AnchorPoint: "Anchor-2" 468 527 basechar 0
LayerCount: 2
Fore
SplineSet
70 0 m 1,0,-1
 70 527 l 1,1,-1
 190 527 l 1,2,-1
 192 420 l 1,3,-1
 172 412 l 1,4,5
 181 438 181 438 199 460.5 c 128,-1,6
 217 483 217 483 242 500 c 128,-1,7
 267 517 267 517 295 526.5 c 128,-1,8
 323 536 323 536 353 536 c 0,9,10
 396 536 396 536 429 522 c 128,-1,11
 462 508 462 508 484.5 479 c 128,-1,12
 507 450 507 450 519 405 c 1,13,-1
 500 409 l 1,14,-1
 507 425 l 2,15,16
 519 449 519 449 539 469 c 128,-1,17
 559 489 559 489 584 504.5 c 128,-1,18
 609 520 609 520 636.5 528 c 128,-1,19
 664 536 664 536 690 536 c 0,20,21
 750 536 750 536 790 512 c 128,-1,22
 830 488 830 488 850 439 c 128,-1,23
 870 390 870 390 870 318 c 2,24,-1
 870 0 l 1,25,-1
 747 0 l 1,26,-1
 747 310 l 2,27,28
 747 370 747 370 723.5 399 c 128,-1,29
 700 428 700 428 651 428 c 0,30,31
 625 428 625 428 603 419.5 c 128,-1,32
 581 411 581 411 564.5 395.5 c 128,-1,33
 548 380 548 380 539 359.5 c 128,-1,34
 530 339 530 339 530 314 c 2,35,-1
 530 0 l 1,36,-1
 407 0 l 1,37,-1
 407 311 l 2,38,39
 407 368 407 368 382.5 398 c 128,-1,40
 358 428 358 428 313 428 c 0,41,42
 287 428 287 428 265.5 419.5 c 128,-1,43
 244 411 244 411 227.5 395.5 c 128,-1,44
 211 380 211 380 202 360 c 128,-1,45
 193 340 193 340 193 316 c 2,46,-1
 193 0 l 1,47,-1
 70 0 l 1,0,-1
EndSplineSet
EndChar

StartChar: n
Encoding: 110 110 40
Width: 609
GlyphClass: 2
Flags: W
AnchorPoint: "Anchor-3" 305 0 basechar 0
AnchorPoint: "Anchor-2" 335 527 basechar 0
LayerCount: 2
Fore
SplineSet
72 0 m 1,0,-1
 72 527 l 1,1,-1
 191 527 l 1,2,-1
 193 419 l 1,3,-1
 170 407 l 1,4,5
 181 442 181 442 209.5 471.5 c 128,-1,6
 238 501 238 501 278 519.5 c 128,-1,7
 318 538 318 538 361 538 c 0,8,9
 421 538 421 538 461.5 514 c 128,-1,10
 502 490 502 490 522 442 c 128,-1,11
 542 394 542 394 542 322 c 2,12,-1
 542 0 l 1,13,-1
 420 0 l 1,14,-1
 420 313 l 2,15,16
 420 354 420 354 409 380.5 c 128,-1,17
 398 407 398 407 375 419.5 c 128,-1,18
 352 432 352 432 319 430 c 0,19,20
 292 430 292 430 269 421.5 c 128,-1,21
 246 413 246 413 229.5 397.5 c 128,-1,22
 213 382 213 382 203.5 361.5 c 128,-1,23
 194 341 194 341 194 317 c 2,24,-1
 194 0 l 1,25,-1
 133 0 l 2,26,27
 116 0 116 0 100.5 0 c 128,-1,28
 85 0 85 0 72 0 c 1,0,-1
EndSplineSet
EndChar

StartChar: o
Encoding: 111 111 41
Width: 623
GlyphClass: 2
Flags: W
AnchorPoint: "Anchor-6" 471 0 basechar 0
AnchorPoint: "Anchor-5" 603 527 basechar 0
AnchorPoint: "Anchor-4" 312 264 basechar 0
AnchorPoint: "Anchor-3" 312 0 basechar 0
AnchorPoint: "Anchor-2" 312 527 basechar 0
LayerCount: 2
Fore
SplineSet
312 -10 m 0,0,1
 233 -10 233 -10 171 25.5 c 128,-1,2
 109 61 109 61 73.5 123 c 128,-1,3
 38 185 38 185 38 264 c 256,4,5
 38 343 38 343 73.5 405 c 128,-1,6
 109 467 109 467 171 502.5 c 128,-1,7
 233 538 233 538 312 538 c 0,8,9
 390 538 390 538 452 502.5 c 128,-1,10
 514 467 514 467 549.5 405 c 128,-1,11
 585 343 585 343 585 264 c 256,12,13
 585 185 585 185 549.5 123 c 128,-1,14
 514 61 514 61 452 25.5 c 128,-1,15
 390 -10 390 -10 312 -10 c 0,0,1
312 99 m 256,16,17
 355 99 355 99 389 120.5 c 128,-1,18
 423 142 423 142 442.5 179.5 c 128,-1,19
 462 217 462 217 461 264 c 0,20,21
 462 312 462 312 442.5 349.5 c 128,-1,22
 423 387 423 387 389 408 c 128,-1,23
 355 429 355 429 312 429 c 256,24,25
 269 429 269 429 234.5 407.5 c 128,-1,26
 200 386 200 386 181 348.5 c 128,-1,27
 162 311 162 311 162 264 c 256,28,29
 162 217 162 217 181 179.5 c 128,-1,30
 200 142 200 142 234.5 120.5 c 128,-1,31
 269 99 269 99 312 99 c 256,16,17
EndSplineSet
Substitution2: "Single Substitution lookup 34 subtable" ordmasculine
Substitution2: "'aalt' Access All Alternates lookup 0 subtable" ordmasculine
EndChar

StartChar: p
Encoding: 112 112 42
Width: 640
GlyphClass: 2
Flags: W
AnchorPoint: "Anchor-3" 321 0 basechar 0
AnchorPoint: "Anchor-2" 321 527 basechar 0
LayerCount: 2
Fore
SplineSet
72 -220 m 1,0,-1
 72 527 l 1,1,-1
 192 527 l 1,2,-1
 194 408 l 1,3,-1
 173 417 l 1,4,5
 179 448 179 448 207 475 c 128,-1,6
 235 502 235 502 275.5 519 c 128,-1,7
 316 536 316 536 360 536 c 0,8,9
 430 536 430 536 484.5 501 c 128,-1,10
 539 466 539 466 570.5 404.5 c 128,-1,11
 602 343 602 343 602 264 c 256,12,13
 602 185 602 185 571 123.5 c 128,-1,14
 540 62 540 62 485.5 26.5 c 128,-1,15
 431 -9 431 -9 362 -9 c 0,16,17
 316 -9 316 -9 273.5 9 c 128,-1,18
 231 27 231 27 202 56 c 128,-1,19
 173 85 173 85 165 116 c 1,20,-1
 195 131 l 1,21,-1
 195 -220 l 1,22,-1
 72 -220 l 1,0,-1
338 100 m 0,23,24
 380 100 380 100 413 121 c 128,-1,25
 446 142 446 142 465 179 c 128,-1,26
 484 216 484 216 484 264 c 256,27,28
 484 312 484 312 465.5 348.5 c 128,-1,29
 447 385 447 385 414 406.5 c 128,-1,30
 381 428 381 428 338 428 c 0,31,32
 294 428 294 428 261 407 c 128,-1,33
 228 386 228 386 209 349 c 128,-1,34
 190 312 190 312 190 264 c 256,35,36
 190 216 190 216 209 179 c 128,-1,37
 228 142 228 142 261 121 c 128,-1,38
 294 100 294 100 338 100 c 0,23,24
EndSplineSet
EndChar

StartChar: q
Encoding: 113 113 43
Width: 639
GlyphClass: 2
Flags: W
AnchorPoint: "Anchor-3" 320 0 basechar 0
AnchorPoint: "Anchor-2" 320 527 basechar 0
LayerCount: 2
Fore
SplineSet
445 -220 m 1,0,-1
 445 126 l 1,1,-1
 470 123 l 1,2,3
 469 99 469 99 453 75.5 c 128,-1,4
 437 52 437 52 410 32.5 c 128,-1,5
 383 13 383 13 350.5 1.5 c 128,-1,6
 318 -10 318 -10 283 -10 c 0,7,8
 213 -10 213 -10 157.5 25.5 c 128,-1,9
 102 61 102 61 70 123 c 128,-1,10
 38 185 38 185 38 264 c 256,11,12
 38 343 38 343 69.5 405 c 128,-1,13
 101 467 101 467 156 502.5 c 128,-1,14
 211 538 211 538 280 538 c 0,15,16
 319 538 319 538 354 526 c 128,-1,17
 389 514 389 514 417 493.5 c 128,-1,18
 445 473 445 473 461.5 448.5 c 128,-1,19
 478 424 478 424 478 398 c 1,20,-1
 446 395 l 1,21,-1
 448 528 l 1,22,-1
 568 528 l 1,23,-1
 568 -220 l 1,24,-1
 445 -220 l 1,0,-1
303 99 m 256,25,26
 346 99 346 99 379 120 c 128,-1,27
 412 141 412 141 430.5 178 c 128,-1,28
 449 215 449 215 449 264 c 256,29,30
 449 313 449 313 430.5 350.5 c 128,-1,31
 412 388 412 388 379 409 c 128,-1,32
 346 430 346 430 303 430 c 256,33,34
 260 430 260 430 227 408.5 c 128,-1,35
 194 387 194 387 175 349.5 c 128,-1,36
 156 312 156 312 156 264 c 256,37,38
 156 216 156 216 175 178.5 c 128,-1,39
 194 141 194 141 227 120 c 128,-1,40
 260 99 260 99 303 99 c 256,25,26
EndSplineSet
EndChar

StartChar: r
Encoding: 114 114 44
Width: 421
GlyphClass: 2
Flags: W
AnchorPoint: "Anchor-3" 132 0 basechar 0
AnchorPoint: "Anchor-2" 249 527 basechar 0
LayerCount: 2
Fore
SplineSet
72 0 m 1,0,-1
 72 527 l 1,1,-1
 192 527 l 1,2,-1
 194 359 l 1,3,-1
 178 397 l 1,4,5
 189 437 189 437 216 469 c 128,-1,6
 243 501 243 501 278.5 519.5 c 128,-1,7
 314 538 314 538 352 538 c 0,8,9
 369 538 369 538 384.5 535 c 128,-1,10
 400 532 400 532 410 528 c 1,11,-1
 378 394 l 1,12,13
 366 400 366 400 350.5 403.5 c 128,-1,14
 335 407 335 407 319 407 c 0,15,16
 293 407 293 407 270.5 397.5 c 128,-1,17
 248 388 248 388 231.5 371 c 128,-1,18
 215 354 215 354 205 331.5 c 128,-1,19
 195 309 195 309 195 282 c 2,20,-1
 195 0 l 1,21,-1
 72 0 l 1,0,-1
EndSplineSet
EndChar

StartChar: s
Encoding: 115 115 45
Width: 484
GlyphClass: 2
Flags: W
AnchorPoint: "Anchor-3" 250 0 basechar 0
AnchorPoint: "Anchor-2" 243 527 basechar 0
LayerCount: 2
Fore
SplineSet
248 -10 m 0,0,1
 179 -10 179 -10 123.5 13.5 c 128,-1,2
 68 37 68 37 33 81 c 1,3,-1
 112 149 l 1,4,5
 142 116 142 116 179 100.5 c 128,-1,6
 216 85 216 85 257 85 c 0,7,8
 274 85 274 85 287.5 89 c 128,-1,9
 301 93 301 93 311 101 c 128,-1,10
 321 109 321 109 326.5 120 c 128,-1,11
 332 131 332 131 332 144 c 0,12,13
 332 168 332 168 314 182 c 0,14,15
 304 188 304 188 283 196.5 c 128,-1,16
 262 205 262 205 228 213 c 0,17,18
 174 227 174 227 137.5 245.5 c 128,-1,19
 101 264 101 264 81 287 c 0,20,21
 64 307 64 307 56 330.5 c 128,-1,22
 48 354 48 354 48 383 c 0,23,24
 48 428 48 428 74.5 463 c 128,-1,25
 101 498 101 498 145 518 c 128,-1,26
 189 538 189 538 243 538 c 0,27,28
 283 538 283 538 320.5 528 c 128,-1,29
 358 518 358 518 390 499.5 c 128,-1,30
 422 481 422 481 445 455 c 1,31,-1
 377 380 l 1,32,33
 359 398 359 398 336.5 412.5 c 128,-1,34
 314 427 314 427 291 435 c 128,-1,35
 268 443 268 443 248 443 c 0,36,37
 229 443 229 443 214 439.5 c 128,-1,38
 199 436 199 436 189 429 c 128,-1,39
 179 422 179 422 173.5 411.5 c 128,-1,40
 168 401 168 401 168 388 c 0,41,42
 169 375 169 375 174.5 364.5 c 128,-1,43
 180 354 180 354 190 347 c 256,44,45
 200 340 200 340 222 331 c 128,-1,46
 244 322 244 322 279 314 c 0,47,48
 328 301 328 301 361 285 c 128,-1,49
 394 269 394 269 413 248 c 0,50,51
 432 230 432 230 440 206 c 128,-1,52
 448 182 448 182 448 152 c 0,53,54
 448 105 448 105 421.5 68.5 c 128,-1,55
 395 32 395 32 350 11 c 128,-1,56
 305 -10 305 -10 248 -10 c 0,0,1
EndSplineSet
EndChar

StartChar: t
Encoding: 116 116 46
Width: 389
GlyphClass: 2
Flags: W
AnchorPoint: "Anchor-5" 276 801 basechar 0
AnchorPoint: "Anchor-4" 194 264 basechar 0
AnchorPoint: "Anchor-3" 194 0 basechar 0
AnchorPoint: "Anchor-2" 194 612 basechar 0
LayerCount: 2
Fore
SplineSet
130 0 m 1,0,-1
 130 661 l 1,1,-1
 252 661 l 1,2,-1
 252 0 l 1,3,-1
 130 0 l 1,0,-1
26 413 m 1,4,-1
 26 527 l 1,5,-1
 367 527 l 1,6,-1
 367 413 l 1,7,-1
 26 413 l 1,4,-1
EndSplineSet
EndChar

StartChar: u
Encoding: 117 117 47
Width: 618
GlyphClass: 2
Flags: W
AnchorPoint: "Anchor-6" 538 0 basechar 0
AnchorPoint: "Anchor-5" 597 527 basechar 0
AnchorPoint: "Anchor-3" 309 0 basechar 0
AnchorPoint: "Anchor-2" 309 527 basechar 0
LayerCount: 2
Fore
SplineSet
255 -10 m 0,0,1
 198 -10 198 -10 156.5 16 c 128,-1,2
 115 42 115 42 92.5 89 c 128,-1,3
 70 136 70 136 70 202 c 2,4,-1
 70 527 l 1,5,-1
 192 527 l 1,6,-1
 192 228 l 2,7,8
 192 166 192 166 221.5 130 c 128,-1,9
 251 94 251 94 304 94 c 0,10,11
 330 94 330 94 351.5 102.5 c 128,-1,12
 373 111 373 111 389 126.5 c 128,-1,13
 405 142 405 142 414 164 c 128,-1,14
 423 186 423 186 423 211 c 2,15,-1
 423 527 l 1,16,-1
 545 527 l 1,17,-1
 545 0 l 1,18,-1
 426 0 l 1,19,-1
 424 110 l 1,20,-1
 446 122 l 1,21,22
 434 85 434 85 405.5 55 c 128,-1,23
 377 25 377 25 338 7.5 c 128,-1,24
 299 -10 299 -10 255 -10 c 0,0,1
EndSplineSet
EndChar

StartChar: v
Encoding: 118 118 49
Width: 584
GlyphClass: 2
Flags: W
AnchorPoint: "Anchor-3" 293 0 basechar 0
AnchorPoint: "Anchor-2" 293 527 basechar 0
LayerCount: 2
Fore
SplineSet
241 0 m 1,0,-1
 19 527 l 1,1,-1
 152 527 l 1,2,-1
 303 134 l 1,3,-1
 277 126 l 1,4,-1
 436 527 l 1,5,-1
 566 527 l 1,6,-1
 332 0 l 1,7,-1
 241 0 l 1,0,-1
EndSplineSet
EndChar

StartChar: w
Encoding: 119 119 50
Width: 811
GlyphClass: 2
Flags: W
AnchorPoint: "Anchor-3" 406 0 basechar 0
AnchorPoint: "Anchor-2" 406 527 basechar 0
LayerCount: 2
Fore
SplineSet
196 0 m 1,0,-1
 19 527 l 1,1,-1
 145 528 l 1,2,-1
 263 151 l 1,3,-1
 240 154 l 1,4,-1
 369 447 l 1,5,-1
 442 447 l 1,6,-1
 574 153 l 1,7,-1
 548 151 l 1,8,-1
 667 527 l 1,9,-1
 793 527 l 1,10,-1
 614 0 l 1,11,-1
 528 0 l 1,12,-1
 392 317 l 1,13,-1
 411 315 l 1,14,-1
 283 0 l 1,15,-1
 196 0 l 1,0,-1
EndSplineSet
EndChar

StartChar: x
Encoding: 120 120 51
Width: 577
GlyphClass: 2
Flags: W
AnchorPoint: "Anchor-3" 289 0 basechar 0
AnchorPoint: "Anchor-2" 289 527 basechar 0
LayerCount: 2
Fore
SplineSet
413 0 m 1,0,-1
 262 204 l 1,1,-1
 235 241 l 1,2,-1
 18 527 l 1,3,-1
 169 527 l 1,4,-1
 317 327 l 1,5,-1
 346 287 l 1,6,-1
 561 0 l 1,7,-1
 413 0 l 1,0,-1
17 0 m 1,8,-1
 226 279 l 1,9,-1
 295 196 l 1,10,-1
 161 0 l 1,11,-1
 17 0 l 1,8,-1
347 246 m 1,12,-1
 280 329 l 1,13,-1
 401 527 l 1,14,-1
 546 527 l 1,15,-1
 347 246 l 1,12,-1
EndSplineSet
EndChar

StartChar: y
Encoding: 121 121 52
Width: 594
GlyphClass: 2
Flags: W
AnchorPoint: "Anchor-3" 485 0 basechar 0
AnchorPoint: "Anchor-2" 298 527 basechar 0
LayerCount: 2
Fore
SplineSet
153 -230 m 1,0,-1
 264 28 l 1,1,-1
 265 -55 l 1,2,-1
 5 527 l 1,3,-1
 146 527 l 1,4,-1
 292 180 l 2,5,6
 299 167 299 167 306 145.5 c 128,-1,7
 313 124 313 124 318 104 c 1,8,-1
 293 95 l 1,9,10
 300 114 300 114 307.5 136 c 128,-1,11
 315 158 315 158 323 180 c 2,12,-1
 447 527 l 1,13,-1
 589 527 l 1,14,-1
 370 0 l 1,15,-1
 281 -230 l 1,16,-1
 153 -230 l 1,0,-1
EndSplineSet
EndChar

StartChar: z
Encoding: 122 122 53
Width: 506
GlyphClass: 2
Flags: W
AnchorPoint: "Anchor-4" 253 264 basechar 0
AnchorPoint: "Anchor-3" 253 0 basechar 0
AnchorPoint: "Anchor-2" 253 527 basechar 0
LayerCount: 2
Fore
SplineSet
50 0 m 1,0,-1
 50 89 l 1,1,-1
 324 449 l 1,2,-1
 324 424 l 1,3,-1
 50 424 l 1,4,-1
 50 527 l 1,5,-1
 452 527 l 1,6,-1
 452 439 l 1,7,-1
 186 85 l 1,8,-1
 182 103 l 1,9,-1
 459 103 l 1,10,-1
 459 0 l 1,11,-1
 50 0 l 1,0,-1
EndSplineSet
EndChar

StartChar: zero
Encoding: 48 48 54
Width: 629
GlyphClass: 1
Flags: W
LayerCount: 2
Fore
SplineSet
314 -10 m 256,0,1
 229 -10 229 -10 169 33.5 c 128,-1,2
 109 77 109 77 76.5 157.5 c 128,-1,3
 44 238 44 238 44 350 c 256,4,5
 44 462 44 462 76.5 542.5 c 128,-1,6
 109 623 109 623 169 666.5 c 128,-1,7
 229 710 229 710 314 710 c 256,8,9
 399 710 399 710 459.5 666.5 c 128,-1,10
 520 623 520 623 552.5 542.5 c 128,-1,11
 585 462 585 462 585 350 c 256,12,13
 585 238 585 238 552.5 157.5 c 128,-1,14
 520 77 520 77 459.5 33.5 c 128,-1,15
 399 -10 399 -10 314 -10 c 256,0,1
314 104 m 256,16,17
 384 104 384 104 422 168 c 128,-1,18
 460 232 460 232 460 350 c 0,19,20
 460 469 460 469 422 533.5 c 128,-1,21
 384 598 384 598 314 598 c 256,22,23
 244 598 244 598 205.5 533.5 c 128,-1,24
 167 469 167 469 167 350 c 0,25,26
 167 232 167 232 205.5 168 c 128,-1,27
 244 104 244 104 314 104 c 256,16,17
EndSplineSet
Substitution2: "'zero' Slashed Zero lookup 43 subtable" zero.zero
Substitution2: "'frac' Diagonal Fractions lookup 29 subtable" zero.numr
Substitution2: "'dnom' Denominators lookup 27 subtable" zero.dnom
Substitution2: "'numr' Numerators lookup 26 subtable" zero.numr
Substitution2: "'sups' Superscript lookup 25 subtable" uni2070
Substitution2: "'sinf' Scientific Inferiors lookup 24 subtable" uni2080
Substitution2: "'subs' Subscript lookup 23 subtable" uni2080
AlternateSubs2: "'aalt' Access All Alternates lookup 1 subtable" zero.zero zero.dnom uni2080 zero.numr uni2070
EndChar

StartChar: one
Encoding: 49 49 55
Width: 521
GlyphClass: 1
Flags: W
LayerCount: 2
Fore
SplineSet
215 49 m 1,0,-1
 215 616 l 1,1,-1
 253 570 l 1,2,-1
 111 498 l 1,3,-1
 82 611 l 1,4,-1
 273 710 l 1,5,-1
 344 710 l 1,6,-1
 344 49 l 1,7,-1
 215 49 l 1,0,-1
99 0 m 1,8,-1
 99 120 l 1,9,-1
 464 120 l 1,10,-1
 464 0 l 1,11,-1
 99 0 l 1,8,-1
EndSplineSet
Substitution2: "'frac' Diagonal Fractions lookup 29 subtable" one.numr
Substitution2: "'dnom' Denominators lookup 27 subtable" one.dnom
Substitution2: "'numr' Numerators lookup 26 subtable" one.numr
Substitution2: "'sups' Superscript lookup 25 subtable" uni00B9
Substitution2: "'sinf' Scientific Inferiors lookup 24 subtable" uni2081
Substitution2: "'subs' Subscript lookup 23 subtable" uni2081
AlternateSubs2: "'aalt' Access All Alternates lookup 1 subtable" one.dnom uni2081 one.numr uni00B9
EndChar

StartChar: two
Encoding: 50 50 56
Width: 548
GlyphClass: 1
Flags: W
LayerCount: 2
Fore
SplineSet
82 0 m 1,0,-1
 49 83 l 1,1,-1
 259 317 l 2,2,3
 276 336 276 336 295 359.5 c 128,-1,4
 314 383 314 383 331.5 408 c 128,-1,5
 349 433 349 433 360 457.5 c 128,-1,6
 371 482 371 482 371 503 c 0,7,8
 371 531 371 531 359.5 551 c 128,-1,9
 348 571 348 571 327 582 c 128,-1,10
 306 593 306 593 275 593 c 0,11,12
 249 593 249 593 223 577.5 c 128,-1,13
 197 562 197 562 175.5 533.5 c 128,-1,14
 154 505 154 505 140 466 c 1,15,-1
 43 524 l 1,16,17
 61 582 61 582 97 624 c 128,-1,18
 133 666 133 666 182.5 689 c 128,-1,19
 232 712 232 712 290 712 c 0,20,21
 350 712 350 712 397 687 c 128,-1,22
 444 662 444 662 471.5 618 c 128,-1,23
 499 574 499 574 499 515 c 0,24,25
 499 487 499 487 491 457 c 128,-1,26
 483 427 483 427 466 394 c 128,-1,27
 449 361 449 361 422 324.5 c 128,-1,28
 395 288 395 288 356 246 c 2,29,-1
 199 75 l 1,30,-1
 178 120 l 1,31,-1
 524 120 l 1,32,-1
 524 0 l 1,33,-1
 82 0 l 1,0,-1
EndSplineSet
Substitution2: "'frac' Diagonal Fractions lookup 29 subtable" two.numr
Substitution2: "'dnom' Denominators lookup 27 subtable" two.dnom
Substitution2: "'numr' Numerators lookup 26 subtable" two.numr
Substitution2: "'sups' Superscript lookup 25 subtable" uni00B2
Substitution2: "'sinf' Scientific Inferiors lookup 24 subtable" uni2082
Substitution2: "'subs' Subscript lookup 23 subtable" uni2082
AlternateSubs2: "'aalt' Access All Alternates lookup 1 subtable" two.dnom uni2082 two.numr uni00B2
EndChar

StartChar: three
Encoding: 51 51 57
Width: 549
GlyphClass: 1
Flags: W
LayerCount: 2
Fore
SplineSet
263 -10 m 0,0,1
 185 -10 185 -10 127.5 24.5 c 128,-1,2
 70 59 70 59 21 141 c 1,3,-1
 118 203 l 1,4,5
 142 167 142 167 166 144 c 128,-1,6
 190 121 190 121 216 110.5 c 128,-1,7
 242 100 242 100 270 100 c 0,8,9
 303 100 303 100 330.5 116 c 128,-1,10
 358 132 358 132 374.5 160 c 128,-1,11
 391 188 391 188 391 224 c 0,12,13
 391 261 391 261 378 286 c 128,-1,14
 365 311 365 311 339 324.5 c 128,-1,15
 313 338 313 338 278 338 c 0,16,17
 262 338 262 338 243.5 334.5 c 128,-1,18
 225 331 225 331 205 324.5 c 128,-1,19
 185 318 185 318 161 309 c 1,20,-1
 129 394 l 1,21,-1
 329 615 l 1,22,-1
 358 585 l 1,23,-1
 63 587 l 1,24,-1
 63 702 l 1,25,-1
 474 702 l 1,26,-1
 498 655 l 1,27,-1
 268 403 l 1,28,-1
 238 436 l 1,29,30
 246 440 246 440 264.5 443.5 c 128,-1,31
 283 447 283 447 296 447 c 0,32,33
 341 447 341 447 380.5 430 c 128,-1,34
 420 413 420 413 449.5 383.5 c 128,-1,35
 479 354 479 354 496 314.5 c 128,-1,36
 513 275 513 275 513 229 c 0,37,38
 513 160 513 160 479.5 106 c 128,-1,39
 446 52 446 52 389.5 21 c 128,-1,40
 333 -10 333 -10 263 -10 c 0,0,1
EndSplineSet
Substitution2: "'frac' Diagonal Fractions lookup 29 subtable" three.numr
Substitution2: "'dnom' Denominators lookup 27 subtable" three.dnom
Substitution2: "'numr' Numerators lookup 26 subtable" three.numr
Substitution2: "'sups' Superscript lookup 25 subtable" uni00B3
Substitution2: "'sinf' Scientific Inferiors lookup 24 subtable" uni2083
Substitution2: "'subs' Subscript lookup 23 subtable" uni2083
AlternateSubs2: "'aalt' Access All Alternates lookup 1 subtable" three.dnom uni2083 three.numr uni00B3
EndChar

StartChar: four
Encoding: 52 52 58
Width: 634
GlyphClass: 1
Flags: W
LayerCount: 2
Fore
SplineSet
350 0 m 1,0,-1
 350 564 l 1,1,-1
 397 559 l 1,2,-1
 161 270 l 1,3,-1
 150 288 l 1,4,-1
 594 288 l 1,5,-1
 594 175 l 1,6,-1
 80 175 l 1,7,-1
 26 279 l 1,8,-1
 373 702 l 1,9,-1
 475 702 l 1,10,-1
 475 0 l 1,11,-1
 350 0 l 1,0,-1
EndSplineSet
Substitution2: "'frac' Diagonal Fractions lookup 29 subtable" four.numr
Substitution2: "'dnom' Denominators lookup 27 subtable" four.dnom
Substitution2: "'numr' Numerators lookup 26 subtable" four.numr
Substitution2: "'sups' Superscript lookup 25 subtable" uni2074
Substitution2: "'sinf' Scientific Inferiors lookup 24 subtable" uni2084
Substitution2: "'subs' Subscript lookup 23 subtable" uni2084
AlternateSubs2: "'aalt' Access All Alternates lookup 1 subtable" four.dnom uni2084 four.numr uni2074
EndChar

StartChar: five
Encoding: 53 53 59
Width: 577
GlyphClass: 1
Flags: W
LayerCount: 2
Fore
SplineSet
265 -7 m 256,0,1
 193 -7 193 -7 134 24.5 c 128,-1,2
 75 56 75 56 37 115 c 1,3,-1
 107 194 l 1,4,5
 152 144 152 144 187 126 c 128,-1,6
 222 108 222 108 263 108 c 0,7,8
 301 108 301 108 331.5 124.5 c 128,-1,9
 362 141 362 141 379.5 169 c 128,-1,10
 397 197 397 197 397 232 c 0,11,12
 397 269 397 269 380 297.5 c 128,-1,13
 363 326 363 326 334 343 c 128,-1,14
 305 360 305 360 269 360 c 0,15,16
 249 360 249 360 231 357 c 128,-1,17
 213 354 213 354 190 345 c 128,-1,18
 167 336 167 336 130 317 c 1,19,-1
 68 401 l 1,20,-1
 109 702 l 1,21,-1
 495 702 l 1,22,-1
 495 587 l 1,23,-1
 182 587 l 1,24,-1
 210 618 l 1,25,-1
 178 397 l 1,26,-1
 141 424 l 1,27,28
 154 436 154 436 179 446.5 c 128,-1,29
 204 457 204 457 234.5 464 c 128,-1,30
 265 471 265 471 293 471 c 0,31,32
 358 471 358 471 409 441 c 128,-1,33
 460 411 460 411 490 358.5 c 128,-1,34
 520 306 520 306 520 238 c 0,35,36
 520 169 520 169 486.5 113.5 c 128,-1,37
 453 58 453 58 395 25.5 c 128,-1,38
 337 -7 337 -7 265 -7 c 256,0,1
EndSplineSet
Substitution2: "'frac' Diagonal Fractions lookup 29 subtable" five.numr
Substitution2: "'dnom' Denominators lookup 27 subtable" five.dnom
Substitution2: "'numr' Numerators lookup 26 subtable" five.numr
Substitution2: "'sups' Superscript lookup 25 subtable" uni2075
Substitution2: "'sinf' Scientific Inferiors lookup 24 subtable" uni2085
Substitution2: "'subs' Subscript lookup 23 subtable" uni2085
AlternateSubs2: "'aalt' Access All Alternates lookup 1 subtable" five.dnom uni2085 five.numr uni2075
EndChar

StartChar: six
Encoding: 54 54 60
Width: 564
GlyphClass: 1
Flags: W
LayerCount: 2
Fore
SplineSet
286 0 m 0,0,1
 234 0 234 0 188.5 19 c 128,-1,2
 143 38 143 38 109.5 71.5 c 128,-1,3
 76 105 76 105 57 150 c 128,-1,4
 38 195 38 195 38 249 c 0,5,6
 38 289 38 289 51.5 336.5 c 128,-1,7
 65 384 65 384 91 438.5 c 128,-1,8
 117 493 117 493 154 555 c 2,9,-1
 247 712 l 1,10,-1
 370 712 l 1,11,-1
 374 702 l 1,12,-1
 256 507 l 2,13,14
 227 459 227 459 205 416 c 128,-1,15
 183 373 183 373 167 334 c 128,-1,16
 151 295 151 295 141 260 c 1,17,-1
 114 353 l 1,18,19
 136 396 136 396 167.5 426.5 c 128,-1,20
 199 457 199 457 237.5 473 c 128,-1,21
 276 489 276 489 317 489 c 0,22,23
 375 489 375 489 424 457.5 c 128,-1,24
 473 426 473 426 502.5 374 c 128,-1,25
 532 322 532 322 532 260 c 0,26,27
 532 186 532 186 500.5 127 c 128,-1,28
 469 68 469 68 413.5 34 c 128,-1,29
 358 0 358 0 286 0 c 0,0,1
287 114 m 0,30,31
 323 114 323 114 351.5 131 c 128,-1,32
 380 148 380 148 396.5 178.5 c 128,-1,33
 413 209 413 209 413 249 c 0,34,35
 413 283 413 283 396 313 c 128,-1,36
 379 343 379 343 351 361 c 128,-1,37
 323 379 323 379 289 379 c 0,38,39
 251 379 251 379 221 361.5 c 128,-1,40
 191 344 191 344 174.5 314.5 c 128,-1,41
 158 285 158 285 158 249 c 0,42,43
 158 211 158 211 174.5 180 c 128,-1,44
 191 149 191 149 220 131.5 c 128,-1,45
 249 114 249 114 287 114 c 0,30,31
EndSplineSet
Substitution2: "'frac' Diagonal Fractions lookup 29 subtable" six.numr
Substitution2: "'dnom' Denominators lookup 27 subtable" six.dnom
Substitution2: "'numr' Numerators lookup 26 subtable" six.numr
Substitution2: "'sups' Superscript lookup 25 subtable" uni2076
Substitution2: "'sinf' Scientific Inferiors lookup 24 subtable" uni2086
Substitution2: "'subs' Subscript lookup 23 subtable" uni2086
AlternateSubs2: "'aalt' Access All Alternates lookup 1 subtable" six.dnom uni2086 six.numr uni2076
EndChar

StartChar: seven
Encoding: 55 55 61
Width: 546
GlyphClass: 1
Flags: W
LayerCount: 2
Fore
SplineSet
103 0 m 1,0,-1
 390 633 l 1,1,-1
 413 586 l 1,2,-1
 56 586 l 1,3,-1
 56 702 l 1,4,-1
 497 702 l 1,5,-1
 511 629 l 1,6,-1
 238 0 l 1,7,-1
 103 0 l 1,0,-1
EndSplineSet
Substitution2: "'frac' Diagonal Fractions lookup 29 subtable" seven.numr
Substitution2: "'dnom' Denominators lookup 27 subtable" seven.dnom
Substitution2: "'numr' Numerators lookup 26 subtable" seven.numr
Substitution2: "'sups' Superscript lookup 25 subtable" uni2077
Substitution2: "'sinf' Scientific Inferiors lookup 24 subtable" uni2087
Substitution2: "'subs' Subscript lookup 23 subtable" uni2087
AlternateSubs2: "'aalt' Access All Alternates lookup 1 subtable" seven.dnom uni2087 seven.numr uni2077
EndChar

StartChar: eight
Encoding: 56 56 62
Width: 585
GlyphClass: 1
Flags: W
LayerCount: 2
Fore
SplineSet
292 -3 m 0,0,1
 225 -3 225 -3 170 24.5 c 128,-1,2
 115 52 115 52 82 98.5 c 128,-1,3
 49 145 49 145 49 202 c 0,4,5
 49 235 49 235 58 264 c 128,-1,6
 67 293 67 293 85 316.5 c 128,-1,7
 103 340 103 340 129.5 358.5 c 128,-1,8
 156 377 156 377 191 391 c 1,9,-1
 183 363 l 1,10,11
 147 377 147 377 121.5 399 c 128,-1,12
 96 421 96 421 82 450 c 128,-1,13
 68 479 68 479 68 513 c 0,14,15
 68 566 68 566 98 609 c 128,-1,16
 128 652 128 652 179 678 c 128,-1,17
 230 704 230 704 292 704 c 0,18,19
 355 704 355 704 405.5 678 c 128,-1,20
 456 652 456 652 486.5 609 c 128,-1,21
 517 566 517 566 517 513 c 0,22,23
 517 479 517 479 503.5 451 c 128,-1,24
 490 423 490 423 464.5 401 c 128,-1,25
 439 379 439 379 400 363 c 1,26,-1
 395 387 l 1,27,28
 437 372 437 372 469 344.5 c 128,-1,29
 501 317 501 317 519 280.5 c 128,-1,30
 537 244 537 244 537 202 c 0,31,32
 537 144 537 144 504 97.5 c 128,-1,33
 471 51 471 51 415.5 24 c 128,-1,34
 360 -3 360 -3 292 -3 c 0,0,1
292 109 m 0,35,36
 326 109 326 109 353 122 c 128,-1,37
 380 135 380 135 395.5 157 c 128,-1,38
 411 179 411 179 411 208 c 0,39,40
 411 238 411 238 395.5 261.5 c 128,-1,41
 380 285 380 285 353 299 c 128,-1,42
 326 313 326 313 292 313 c 0,43,44
 259 313 259 313 232 299 c 128,-1,45
 205 285 205 285 189.5 261.5 c 128,-1,46
 174 238 174 238 174 208 c 0,47,48
 174 180 174 180 189.5 157.5 c 128,-1,49
 205 135 205 135 232 122 c 128,-1,50
 259 109 259 109 292 109 c 0,35,36
292 422 m 0,51,52
 322 422 322 422 345 433.5 c 128,-1,53
 368 445 368 445 381.5 464 c 128,-1,54
 395 483 395 483 395 508 c 256,55,56
 395 533 395 533 381.5 552.5 c 128,-1,57
 368 572 368 572 345 584 c 128,-1,58
 322 596 322 596 292 596 c 0,59,60
 263 596 263 596 239.5 584 c 128,-1,61
 216 572 216 572 202.5 552.5 c 128,-1,62
 189 533 189 533 189 508 c 256,63,64
 189 483 189 483 202.5 464 c 128,-1,65
 216 445 216 445 239.5 433.5 c 128,-1,66
 263 422 263 422 292 422 c 0,51,52
EndSplineSet
Substitution2: "'frac' Diagonal Fractions lookup 29 subtable" eight.numr
Substitution2: "'dnom' Denominators lookup 27 subtable" eight.dnom
Substitution2: "'numr' Numerators lookup 26 subtable" eight.numr
Substitution2: "'sups' Superscript lookup 25 subtable" uni2078
Substitution2: "'sinf' Scientific Inferiors lookup 24 subtable" uni2088
Substitution2: "'subs' Subscript lookup 23 subtable" uni2088
AlternateSubs2: "'aalt' Access All Alternates lookup 1 subtable" eight.dnom uni2088 eight.numr uni2078
EndChar

StartChar: nine
Encoding: 57 57 63
Width: 559
GlyphClass: 1
Flags: W
LayerCount: 2
Fore
SplineSet
221 0 m 1,0,-1
 217 10 l 1,1,-1
 429 453 l 1,2,-1
 440 376 l 1,3,4
 421 335 421 335 388.5 304 c 128,-1,5
 356 273 356 273 317.5 256 c 128,-1,6
 279 239 279 239 241 239 c 0,7,8
 184 239 184 239 136 269.5 c 128,-1,9
 88 300 88 300 59 350.5 c 128,-1,10
 30 401 30 401 30 461 c 0,11,12
 30 532 30 532 62.5 589.5 c 128,-1,13
 95 647 95 647 152 680.5 c 128,-1,14
 209 714 209 714 280 714 c 0,15,16
 331 714 331 714 376 695.5 c 128,-1,17
 421 677 421 677 454.5 644 c 128,-1,18
 488 611 488 611 507.5 568.5 c 128,-1,19
 527 526 527 526 527 477 c 0,20,21
 527 449 527 449 521.5 418.5 c 128,-1,22
 516 388 516 388 504.5 352 c 128,-1,23
 493 316 493 316 474.5 272.5 c 128,-1,24
 456 229 456 229 429 174 c 2,25,-1
 345 0 l 1,26,-1
 221 0 l 1,0,-1
270 351 m 0,27,28
 306 351 306 351 334.5 367.5 c 128,-1,29
 363 384 363 384 379 411 c 128,-1,30
 395 438 395 438 395 473 c 0,31,32
 395 509 395 509 379.5 538 c 128,-1,33
 364 567 364 567 336 583.5 c 128,-1,34
 308 600 308 600 271 600 c 0,35,36
 237 600 237 600 211 584 c 128,-1,37
 185 568 185 568 170 539.5 c 128,-1,38
 155 511 155 511 155 473 c 0,39,40
 155 441 155 441 170.5 413.5 c 128,-1,41
 186 386 186 386 212 368.5 c 128,-1,42
 238 351 238 351 270 351 c 0,27,28
EndSplineSet
Substitution2: "'frac' Diagonal Fractions lookup 29 subtable" nine.numr
Substitution2: "'dnom' Denominators lookup 27 subtable" nine.dnom
Substitution2: "'numr' Numerators lookup 26 subtable" nine.numr
Substitution2: "'sups' Superscript lookup 25 subtable" uni2079
Substitution2: "'sinf' Scientific Inferiors lookup 24 subtable" uni2089
Substitution2: "'subs' Subscript lookup 23 subtable" uni2089
AlternateSubs2: "'aalt' Access All Alternates lookup 1 subtable" nine.dnom uni2089 nine.numr uni2079
EndChar

StartChar: period
Encoding: 46 46 66
Width: 237
GlyphClass: 1
Flags: W
LayerCount: 2
Fore
SplineSet
119 -11 m 0,0,1
 83 -11 83 -11 63.5 10 c 128,-1,2
 44 31 44 31 44 69 c 0,3,4
 44 104 44 104 64.5 126.5 c 128,-1,5
 85 149 85 149 119 149 c 0,6,7
 154 149 154 149 174 128.5 c 128,-1,8
 194 108 194 108 194 69 c 0,9,10
 194 34 194 34 173 11.5 c 128,-1,11
 152 -11 152 -11 119 -11 c 0,0,1
EndSplineSet
EndChar

StartChar: comma
Encoding: 44 44 67
Width: 274
GlyphClass: 1
Flags: W
LayerCount: 2
Fore
SplineSet
87 -186 m 1,0,-1
 46 -137 l 1,1,2
 83 -117 83 -117 106 -90.5 c 128,-1,3
 129 -64 129 -64 129 -45 c 0,4,5
 129 -35 129 -35 124 -25 c 128,-1,6
 119 -15 119 -15 102 1 c 0,7,8
 81 19 81 19 74.5 33 c 128,-1,9
 68 47 68 47 68 64 c 0,10,11
 68 91 68 91 87 106.5 c 128,-1,12
 106 122 106 122 135 122 c 0,13,14
 162 122 162 122 183.5 107 c 128,-1,15
 205 92 205 92 217 65.5 c 128,-1,16
 229 39 229 39 229 4 c 0,17,18
 229 -27 229 -27 218.5 -56.5 c 128,-1,19
 208 -86 208 -86 188.5 -111 c 128,-1,20
 169 -136 169 -136 143.5 -155.5 c 128,-1,21
 118 -175 118 -175 87 -186 c 1,0,-1
EndSplineSet
EndChar

StartChar: hyphen
Encoding: 45 45 69
Width: 411
GlyphClass: 1
Flags: W
LayerCount: 2
Fore
SplineSet
53 228 m 1,0,-1
 53 345 l 1,1,-1
 359 345 l 1,2,-1
 359 228 l 1,3,-1
 53 228 l 1,0,-1
EndSplineSet
Substitution2: "'case' Case-Sensitive Forms lookup 36 subtable" hyphen.case
Substitution2: "'aalt' Access All Alternates lookup 0 subtable" hyphen.case
EndChar

StartChar: quotesingle
Encoding: 39 39 70
Width: 220
GlyphClass: 1
Flags: W
LayerCount: 2
Fore
SplineSet
39 440 m 1,0,-1
 61 700 l 1,1,-1
 195 700 l 1,2,-1
 113 440 l 1,3,-1
 39 440 l 1,0,-1
EndSplineSet
EndChar

StartChar: uni03020303
Encoding: 65762 -1 71
Width: 0
GlyphClass: 4
Flags: W
AnchorPoint: "Anchor-10" 251 794 basemark 0
AnchorPoint: "Anchor-10" 251 525 mark 0
AnchorPoint: "Anchor-7" 251 525 mark 0
AnchorPoint: "Anchor-2" 251 525 mark 0
AnchorPoint: "Anchor-0" 251 525 mark 0
LayerCount: 2
Fore
SplineSet
126 603 m 1,0,-1
 85 643 l 1,1,-1
 206 754 l 1,2,-1
 295 754 l 1,3,-1
 416 643 l 1,4,-1
 374 603 l 1,5,-1
 235 674 l 1,6,-1
 265 674 l 1,7,-1
 126 603 l 1,0,-1
327 811 m 0,8,9
 301 811 301 811 281.5 819.5 c 128,-1,10
 262 828 262 828 242 836 c 0,11,12
 229 841 229 841 218 846 c 128,-1,13
 207 851 207 851 195 851 c 0,14,15
 181 851 181 851 171 841 c 128,-1,16
 161 831 161 831 158 814 c 1,17,-1
 82 825 l 1,18,19
 84 870 84 870 112.5 903 c 128,-1,20
 141 936 141 936 182 936 c 0,21,22
 204 936 204 936 222 927.5 c 128,-1,23
 240 919 240 919 259 911 c 0,24,25
 273 905 273 905 284.5 900.5 c 128,-1,26
 296 896 296 896 307 896 c 0,27,28
 321 896 321 896 330.5 905.5 c 128,-1,29
 340 915 340 915 343 933 c 1,30,-1
 419 922 l 1,31,32
 418 893 418 893 406.5 867.5 c 128,-1,33
 395 842 395 842 375 826.5 c 128,-1,34
 355 811 355 811 327 811 c 0,8,9
EndSplineSet
Substitution2: "'case' Case-Sensitive Forms lookup 36 subtable" uni03020303.case
Ligature2: "'ccmp' Glyph Composition/Decomposition lookup 11 subtable" uni0302 tildecomb
Substitution2: "Single Substitution lookup 7 subtable" uni03020303.case
Substitution2: "Single Substitution lookup 6 subtable" uni03020303.case
Substitution2: "Single Substitution lookup 4 subtable" uni03020303.case
Substitution2: "Single Substitution lookup 3 subtable" uni03020303.case
Substitution2: "'aalt' Access All Alternates lookup 0 subtable" uni03020303.case
EndChar

StartChar: uni0302
Encoding: 770 770 72
Width: 0
GlyphClass: 4
Flags: W
AnchorPoint: "Anchor-10" 250 718 basemark 0
AnchorPoint: "Anchor-10" 250 525 mark 0
AnchorPoint: "Anchor-7" 250 525 mark 0
AnchorPoint: "Anchor-2" 250 525 mark 0
AnchorPoint: "Anchor-0" 250 525 mark 0
LayerCount: 2
Fore
SplineSet
125 603 m 1,0,-1
 81 642 l 1,1,-1
 205 760 l 1,2,-1
 295 760 l 1,3,-1
 419 642 l 1,4,-1
 375 603 l 1,5,-1
 235 680 l 1,6,-1
 265 680 l 1,7,-1
 125 603 l 1,0,-1
EndSplineSet
Substitution2: "'case' Case-Sensitive Forms lookup 36 subtable" uni0302.case
Substitution2: "Single Substitution lookup 7 subtable" uni0302.case
Substitution2: "Single Substitution lookup 6 subtable" uni0302.case
Substitution2: "Single Substitution lookup 4 subtable" uni0302.case
Substitution2: "Single Substitution lookup 3 subtable" uni0302.case
Substitution2: "'aalt' Access All Alternates lookup 0 subtable" uni0302.case
EndChar

StartChar: tildecomb
Encoding: 771 771 73
Width: 0
GlyphClass: 4
Flags: W
AnchorPoint: "Anchor-10" 251 718 basemark 0
AnchorPoint: "Anchor-10" 251 525 mark 0
AnchorPoint: "Anchor-7" 251 525 mark 0
AnchorPoint: "Anchor-2" 251 525 mark 0
AnchorPoint: "Anchor-0" 251 525 mark 0
LayerCount: 2
Fore
SplineSet
307 613 m 0,0,1
 288 613 288 613 273.5 620 c 128,-1,2
 259 627 259 627 241 640 c 0,3,4
 222 656 222 656 212.5 662.5 c 128,-1,5
 203 669 203 669 195 669 c 0,6,7
 181 669 181 669 171 655.5 c 128,-1,8
 161 642 161 642 158 614 c 1,9,-1
 82 625 l 1,10,11
 84 676 84 676 114 713.5 c 128,-1,12
 144 751 144 751 194 751 c 0,13,14
 213 751 213 751 227.5 744 c 128,-1,15
 242 737 242 737 260 724 c 0,16,17
 278 710 278 710 288 702.5 c 128,-1,18
 298 695 298 695 307 695 c 0,19,20
 321 695 321 695 330.5 709 c 128,-1,21
 340 723 340 723 344 750 c 1,22,-1
 419 739 l 1,23,24
 418 706 418 706 403.5 676.5 c 128,-1,25
 389 647 389 647 365 630 c 128,-1,26
 341 613 341 613 307 613 c 0,0,1
EndSplineSet
Substitution2: "'case' Case-Sensitive Forms lookup 36 subtable" tildecomb.case
Substitution2: "Single Substitution lookup 7 subtable" tildecomb.case
Substitution2: "Single Substitution lookup 6 subtable" tildecomb.case
Substitution2: "Single Substitution lookup 4 subtable" tildecomb.case
Substitution2: "Single Substitution lookup 3 subtable" tildecomb.case
Substitution2: "'aalt' Access All Alternates lookup 0 subtable" tildecomb.case
EndChar

StartChar: tildecomb.case
Encoding: 65817 -1 74
Width: 0
GlyphClass: 4
Flags: W
AnchorPoint: "Anchor-10" 251 863 basemark 0
AnchorPoint: "Anchor-10" 251 700 mark 0
AnchorPoint: "Anchor-7" 251 700 mark 0
AnchorPoint: "Anchor-2" 251 700 mark 0
AnchorPoint: "Anchor-0" 251 700 mark 0
LayerCount: 2
Fore
SplineSet
326 768 m 0,0,1
 304 768 304 768 281.5 775 c 128,-1,2
 259 782 259 782 237 791 c 0,3,4
 220 798 220 798 208 802 c 128,-1,5
 196 806 196 806 186 806 c 0,6,7
 172 806 172 806 163.5 796.5 c 128,-1,8
 155 787 155 787 155 768 c 1,9,-1
 71 768 l 1,10,11
 71 826 71 826 106.5 858.5 c 128,-1,12
 142 891 142 891 190 891 c 0,13,14
 210 891 210 891 229 884.5 c 128,-1,15
 248 878 248 878 269 869 c 0,16,17
 284 862 284 862 297 858 c 128,-1,18
 310 854 310 854 319 854 c 0,19,20
 332 854 332 854 340 864 c 128,-1,21
 348 874 348 874 347 891 c 1,22,-1
 430 891 l 1,23,24
 430 858 430 858 417.5 830 c 128,-1,25
 405 802 405 802 381.5 785 c 128,-1,26
 358 768 358 768 326 768 c 0,0,1
EndSplineSet
EndChar
